{
    "accessors" : [
        {
            "bufferView" : 0, 
            "componentType" : 5121, 
            "count" : 756, 
            "max" : [
                127
            ], 
            "min" : [
                0
            ], 
            "type" : "SCALAR"
        }, 
        {
            "bufferView" : 1, 
            "componentType" : 5126, 
            "count" : 128, 
            "max" : [
                0.9999998807907104, 
                1.0, 
                1.0
            ], 
            "min" : [
                -0.9999998807907104, 
                -1.0, 
                -1.0
            ], 
            "type" : "VEC3"
        }, 
        {
            "bufferView" : 2, 
            "componentType" : 5126, 
            "count" : 128, 
            "max" : [
                0.7278664708137512, 
                0.729819655418396, 
                0.7278664708137512
            ], 
            "min" : [
                -0.7278664708137512, 
                -0.6856898665428162, 
                -0.7278664708137512
            ], 
            "type" : "VEC3"
        }
    ], 
    "asset" : {
        "generator" : "Khronos Blender glTF 2.0 exporter", 
        "version" : "2.0"
    }, 
    "bufferViews" : [
        {
            "buffer" : 0, 
            "byteLength" : 756, 
            "byteOffset" : 0, 
            "target" : 34963
        }, 
        {
            "buffer" : 0, 
            "byteLength" : 1536, 
            "byteOffset" : 756, 
            "target" : 34962
        }, 
        {
            "buffer" : 0, 
            "byteLength" : 1536, 
            "byteOffset" : 2292, 
            "target" : 34962
        }
    ], 
    "buffers" : [
        {
            "byteLength" : 3828, 
            "uri" : "trashcan.bin"
        }
    ], 
    "materials" : [
        {
            "name" : "Material", 
            "pbrMetallicRoughness" : {
                "baseColorFactor" : [
                    0.20189806818962097, 
                    0.20189806818962097, 
                    0.20189806818962097, 
                    1.0
                ], 
                "metallicFactor" : 0.0
            }
        }
    ], 
    "meshes" : [
        {
            "name" : "Cylinder", 
            "primitives" : [
                {
                    "attributes" : {
                        "NORMAL" : 2, 
                        "POSITION" : 1
                    }, 
                    "indices" : 0, 
                    "material" : 0
                }
            ]
        }
    ], 
    "nodes" : [
        {
            "mesh" : 0, 
            "name" : "Cylinder", 
            "rotation" : [
                0.0036061222199350595, 
                0.9999459385871887, 
                0.0009289576555602252, 
                0.009710181504487991
            ], 
            "scale" : [
                0.4216068983078003, 
                0.47222861647605896, 
                0.42160412669181824
            ]
        }
    ], 
    "scene" : 0, 
    "scenes" : [
        {
            "name" : "Scene", 
            "nodes" : [
                0
            ]
        }
    ]
}
