{
    "accessors" : [
        {
            "bufferView" : 0, 
            "componentType" : 5121, 
            "count" : 288, 
            "max" : [
                187
            ], 
            "min" : [
                0
            ], 
            "type" : "SCALAR"
        }, 
        {
            "bufferView" : 1, 
            "componentType" : 5126, 
            "count" : 188, 
            "max" : [
                0.8675565123558044, 
                -1.498103141784668, 
                0.9476956725120544
            ], 
            "min" : [
                -0.8809175491333008, 
                -17.7861328125, 
                -0.932870090007782
            ], 
            "type" : "VEC3"
        }, 
        {
            "bufferView" : 2, 
            "componentType" : 5126, 
            "count" : 188, 
            "max" : [
                1.0, 
                1.0, 
                1.0
            ], 
            "min" : [
                -1.0, 
                -1.0, 
                -1.0
            ], 
            "type" : "VEC3"
        }, 
        {
            "bufferView" : 3, 
            "componentType" : 5126, 
            "count" : 188, 
            "max" : [
                0.9818739891052246, 
                0.9993905759765767
            ], 
            "min" : [
                0.0006094240234233439, 
                0.0006093382835388184
            ], 
            "type" : "VEC2"
        }, 
        {
            "bufferView" : 4, 
            "componentType" : 5121, 
            "count" : 324, 
            "max" : [
                211
            ], 
            "min" : [
                0
            ], 
            "type" : "SCALAR"
        }, 
        {
            "bufferView" : 5, 
            "componentType" : 5126, 
            "count" : 212, 
            "max" : [
                1.0000004768371582, 
                1.0, 
                1.0000005960464478
            ], 
            "min" : [
                -1.0000003576278687, 
                -19.46871566772461, 
                -1.0000003576278687
            ], 
            "type" : "VEC3"
        }, 
        {
            "bufferView" : 6, 
            "componentType" : 5126, 
            "count" : 212, 
            "max" : [
                1.0, 
                1.0, 
                1.0
            ], 
            "min" : [
                -1.0, 
                -1.0, 
                -1.0
            ], 
            "type" : "VEC3"
        }, 
        {
            "bufferView" : 7, 
            "componentType" : 5126, 
            "count" : 212, 
            "max" : [
                0.9218286871910095, 
                0.999567244987702
            ], 
            "min" : [
                0.00043275501229800284, 
                0.00043267011642456055
            ], 
            "type" : "VEC2"
        }
    ], 
    "asset" : {
        "generator" : "Khronos Blender glTF 2.0 exporter", 
        "version" : "2.0"
    }, 
    "bufferViews" : [
        {
            "buffer" : 0, 
            "byteLength" : 288, 
            "byteOffset" : 0, 
            "target" : 34963
        }, 
        {
            "buffer" : 0, 
            "byteLength" : 2256, 
            "byteOffset" : 288, 
            "target" : 34962
        }, 
        {
            "buffer" : 0, 
            "byteLength" : 2256, 
            "byteOffset" : 2544, 
            "target" : 34962
        }, 
        {
            "buffer" : 0, 
            "byteLength" : 1504, 
            "byteOffset" : 4800, 
            "target" : 34962
        }, 
        {
            "buffer" : 0, 
            "byteLength" : 324, 
            "byteOffset" : 6304, 
            "target" : 34963
        }, 
        {
            "buffer" : 0, 
            "byteLength" : 2544, 
            "byteOffset" : 6628, 
            "target" : 34962
        }, 
        {
            "buffer" : 0, 
            "byteLength" : 2544, 
            "byteOffset" : 9172, 
            "target" : 34962
        }, 
        {
            "buffer" : 0, 
            "byteLength" : 1696, 
            "byteOffset" : 11716, 
            "target" : 34962
        }
    ], 
    "buffers" : [
        {
            "byteLength" : 13412, 
            "uri" : "sticker_stamper.bin"
        }
    ], 
    "images" : [
        {
            "uri" : "../../texture/blackplatictexture512.png"
        }, 
        {
            "uri" : "../../texture/whiteplastictexture256.png"
        }
    ], 
    "materials" : [
        {
            "name" : "Material", 
            "pbrMetallicRoughness" : {
                "baseColorFactor" : [
                    0.800000011920929, 
                    0.800000011920929, 
                    0.800000011920929, 
                    1.0
                ], 
                "baseColorTexture" : {
                    "index" : 0
                }, 
                "metallicFactor" : 0.0
            }
        }, 
        {
            "name" : "Material.002", 
            "pbrMetallicRoughness" : {
                "baseColorFactor" : [
                    0.6400000190734865, 
                    0.6400000190734865, 
                    0.6400000190734865, 
                    1.0
                ], 
                "baseColorTexture" : {
                    "index" : 1
                }, 
                "metallicFactor" : 0.0
            }
        }
    ], 
    "meshes" : [
        {
            "name" : "Cube.001", 
            "primitives" : [
                {
                    "attributes" : {
                        "NORMAL" : 2, 
                        "POSITION" : 1, 
                        "TEXCOORD_0" : 3
                    }, 
                    "indices" : 0, 
                    "material" : 1
                }
            ]
        }, 
        {
            "name" : "Cube", 
            "primitives" : [
                {
                    "attributes" : {
                        "NORMAL" : 6, 
                        "POSITION" : 5, 
                        "TEXCOORD_0" : 7
                    }, 
                    "indices" : 4, 
                    "material" : 0
                }
            ]
        }
    ], 
    "nodes" : [
        {
            "mesh" : 1, 
            "name" : "Box", 
            "rotation" : [
                -0.0, 
                1.0, 
                0.0, 
                0.0
            ], 
            "scale" : [
                -0.5262811183929443, 
                -0.023498617112636566, 
                -1.0
            ]
        }, 
        {
            "mesh" : 0, 
            "name" : "etikettenstapel", 
            "rotation" : [
                -0.0, 
                1.0, 
                0.0, 
                0.0
            ], 
            "scale" : [
                -0.5262811183929443, 
                -0.019257210195064545, 
                -1.0
            ], 
            "translation" : [
                3.725290298461914e-09, 
                0.0, 
                -0.0
            ]
        }
    ], 
    "samplers" : [
        {}
    ], 
    "scene" : 0, 
    "scenes" : [
        {
            "name" : "Scene", 
            "nodes" : [
                1, 
                0
            ]
        }
    ], 
    "textures" : [
        {
            "sampler" : 0, 
            "source" : 0
        }, 
        {
            "sampler" : 0, 
            "source" : 1
        }
    ]
}
