{
    "accessors" : [
        {
            "bufferView" : 0, 
            "componentType" : 5121, 
            "count" : 378, 
            "max" : [
                207
            ], 
            "min" : [
                0
            ], 
            "type" : "SCALAR"
        }, 
        {
            "bufferView" : 1, 
            "componentType" : 5126, 
            "count" : 208, 
            "max" : [
                2.0, 
                5.0, 
                5.0
            ], 
            "min" : [
                0.0, 
                0.0, 
                -0.0
            ], 
            "type" : "VEC3"
        }, 
        {
            "bufferView" : 2, 
            "componentType" : 5126, 
            "count" : 208, 
            "max" : [
                1.0, 
                1.0, 
                1.0
            ], 
            "min" : [
                -1.0, 
                -1.0, 
                -1.0
            ], 
            "type" : "VEC3"
        }, 
        {
            "bufferView" : 3, 
            "componentType" : 5126, 
            "count" : 208, 
            "max" : [
                0.9994134902954102, 
                0.9994135149172507
            ], 
            "min" : [
                0.0005864850827492774, 
                0.03421074151992798
            ], 
            "type" : "VEC2"
        }
    ], 
    "asset" : {
        "generator" : "Khronos Blender glTF 2.0 exporter", 
        "version" : "2.0"
    }, 
    "bufferViews" : [
        {
            "buffer" : 0, 
            "byteLength" : 378, 
            "byteOffset" : 0, 
            "target" : 34963
        }, 
        {
            "buffer" : 0, 
            "byteLength" : 2496, 
            "byteOffset" : 380, 
            "target" : 34962
        }, 
        {
            "buffer" : 0, 
            "byteLength" : 2496, 
            "byteOffset" : 2876, 
            "target" : 34962
        }, 
        {
            "buffer" : 0, 
            "byteLength" : 1664, 
            "byteOffset" : 5372, 
            "target" : 34962
        }
    ], 
    "buffers" : [
        {
            "byteLength" : 7036, 
            "uri" : "cabinetBody.bin"
        }
    ], 
    "images" : [
        {
            "uri" : "../../../texture/woodtexture.png"
        }
    ], 
    "materials" : [
        {
            "name" : "Wood", 
            "pbrMetallicRoughness" : {
                "baseColorTexture" : {
                    "index" : 0
                }, 
                "metallicFactor" : 0.0
            }
        }
    ], 
    "meshes" : [
        {
            "name" : "Plane", 
            "primitives" : [
                {
                    "attributes" : {
                        "NORMAL" : 2, 
                        "POSITION" : 1, 
                        "TEXCOORD_0" : 3
                    }, 
                    "indices" : 0, 
                    "material" : 0
                }
            ]
        }
    ], 
    "nodes" : [
        {
            "mesh" : 0, 
            "name" : "Plane", 
            "scale" : [
                1.3586276769638062, 
                1.3586276769638062, 
                1.3586276769638062
            ]
        }
    ], 
    "samplers" : [
        {}
    ], 
    "scene" : 0, 
    "scenes" : [
        {
            "name" : "Scene", 
            "nodes" : [
                0
            ]
        }
    ], 
    "textures" : [
        {
            "sampler" : 0, 
            "source" : 0
        }
    ]
}
