{
    "accessors" : [
        {
            "bufferView" : 0, 
            "componentType" : 5121, 
            "count" : 294, 
            "max" : [
                195
            ], 
            "min" : [
                0
            ], 
            "type" : "SCALAR"
        }, 
        {
            "bufferView" : 1, 
            "componentType" : 5126, 
            "count" : 196, 
            "max" : [
                0.5253940224647522, 
                0.24352401494979858, 
                0.45120885968208313
            ], 
            "min" : [
                -0.5146489143371582, 
                -0.013886600732803345, 
                -0.490156352519989
            ], 
            "type" : "VEC3"
        }, 
        {
            "bufferView" : 2, 
            "componentType" : 5126, 
            "count" : 196, 
            "max" : [
                0.42855629324913025, 
                0.9985236525535583, 
                0.757438600063324
            ], 
            "min" : [
                -0.584095299243927, 
                0.6129414439201355, 
                -0.5937579870223999
            ], 
            "type" : "VEC3"
        }, 
        {
            "bufferView" : 3, 
            "componentType" : 5126, 
            "count" : 196, 
            "max" : [
                0.9998008608818054, 
                0.6759268641471863, 
                0.4172552227973938, 
                1.0
            ], 
            "min" : [
                0.7369687557220459, 
                -0.4837414026260376, 
                -0.6090864539146423, 
                1.0
            ], 
            "type" : "VEC4"
        }, 
        {
            "bufferView" : 4, 
            "componentType" : 5126, 
            "count" : 196, 
            "max" : [
                1.0, 
                1.0
            ], 
            "min" : [
                0.0, 
                0.0
            ], 
            "type" : "VEC2"
        }
    ], 
    "asset" : {
        "generator" : "Khronos Blender glTF 2.0 exporter", 
        "version" : "2.0"
    }, 
    "bufferViews" : [
        {
            "buffer" : 0, 
            "byteLength" : 294, 
            "byteOffset" : 0, 
            "target" : 34963
        }, 
        {
            "buffer" : 0, 
            "byteLength" : 2352, 
            "byteOffset" : 296, 
            "target" : 34962
        }, 
        {
            "buffer" : 0, 
            "byteLength" : 2352, 
            "byteOffset" : 2648, 
            "target" : 34962
        }, 
        {
            "buffer" : 0, 
            "byteLength" : 3136, 
            "byteOffset" : 5000, 
            "target" : 34962
        }, 
        {
            "buffer" : 0, 
            "byteLength" : 1568, 
            "byteOffset" : 8136, 
            "target" : 34962
        }
    ], 
    "buffers" : [
        {
            "byteLength" : 9704, 
            "uri" : "cloth.bin"
        }
    ], 
    "images" : [
        {
            "uri" : "../../texture/tuchtexture512.png"
        }
    ], 
    "materials" : [
        {
            "name" : "tuchtexture", 
            "pbrMetallicRoughness" : {
                "baseColorFactor" : [
                    0.6400000190734865, 
                    0.6400000190734865, 
                    0.6400000190734865, 
                    1.0
                ], 
                "baseColorTexture" : {
                    "index" : 0
                }, 
                "metallicFactor" : 0.0
            }
        }
    ], 
    "meshes" : [
        {
            "name" : "tuchtexture", 
            "primitives" : [
                {
                    "attributes" : {
                        "NORMAL" : 2, 
                        "POSITION" : 1, 
                        "TANGENT" : 3, 
                        "TEXCOORD_0" : 4
                    }, 
                    "indices" : 0, 
                    "material" : 0
                }
            ]
        }
    ], 
    "nodes" : [
        {
            "mesh" : 0, 
            "name" : "tuchtexture"
        }
    ], 
    "samplers" : [
        {}
    ], 
    "scene" : 0, 
    "scenes" : [
        {
            "name" : "Scene", 
            "nodes" : [
                0
            ]
        }
    ], 
    "textures" : [
        {
            "sampler" : 0, 
            "source" : 0
        }
    ]
}
