{
    "accessors" : [
        {
            "bufferView" : 0, 
            "componentType" : 5123, 
            "count" : 3024, 
            "max" : [
                2015
            ], 
            "min" : [
                0
            ], 
            "type" : "SCALAR"
        }, 
        {
            "bufferView" : 1, 
            "componentType" : 5126, 
            "count" : 2016, 
            "max" : [
                0.5041809678077698, 
                0.15806475281715393, 
                0.45044440031051636
            ], 
            "min" : [
                -0.5111375451087952, 
                -0.039937738329172134, 
                -0.48376840353012085
            ], 
            "type" : "VEC3"
        }, 
        {
            "bufferView" : 2, 
            "componentType" : 5126, 
            "count" : 2016, 
            "max" : [
                0.5504617094993591, 
                0.9999309778213501, 
                0.7112979888916016
            ], 
            "min" : [
                -0.6449341773986816, 
                -0.9999094009399414, 
                -0.6807687878608704
            ], 
            "type" : "VEC3"
        }, 
        {
            "bufferView" : 3, 
            "componentType" : 5126, 
            "count" : 2016, 
            "max" : [
                1.0, 
                0.5790378451347351, 
                0.44075071811676025, 
                1.0
            ], 
            "min" : [
                0.7681055665016174, 
                -0.49752405285835266, 
                -0.4670361876487732, 
                -1.0
            ], 
            "type" : "VEC4"
        }, 
        {
            "bufferView" : 4, 
            "componentType" : 5126, 
            "count" : 2016, 
            "max" : [
                1.0, 
                1.0
            ], 
            "min" : [
                0.0, 
                0.0
            ], 
            "type" : "VEC2"
        }
    ], 
    "asset" : {
        "generator" : "Khronos Blender glTF 2.0 exporter", 
        "version" : "2.0"
    }, 
    "bufferViews" : [
        {
            "buffer" : 0, 
            "byteLength" : 6048, 
            "byteOffset" : 0, 
            "target" : 34963
        }, 
        {
            "buffer" : 0, 
            "byteLength" : 24192, 
            "byteOffset" : 6048, 
            "target" : 34962
        }, 
        {
            "buffer" : 0, 
            "byteLength" : 24192, 
            "byteOffset" : 30240, 
            "target" : 34962
        }, 
        {
            "buffer" : 0, 
            "byteLength" : 32256, 
            "byteOffset" : 54432, 
            "target" : 34962
        }, 
        {
            "buffer" : 0, 
            "byteLength" : 16128, 
            "byteOffset" : 86688, 
            "target" : 34962
        }
    ], 
    "buffers" : [
        {
            "byteLength" : 102816, 
            "uri" : "clothDoubleNormals.bin"
        }
    ], 
    "images" : [
        {
            "uri" : "../../texture/tuchtexture512.png"
        }
    ], 
    "materials" : [
        {
            "name" : "tuchtexture", 
            "pbrMetallicRoughness" : {
                "baseColorFactor" : [
                    0.6400000190734865, 
                    0.6400000190734865, 
                    0.6400000190734865, 
                    1.0
                ], 
                "baseColorTexture" : {
                    "index" : 0
                }, 
                "metallicFactor" : 0.0
            }
        }
    ], 
    "meshes" : [
        {
            "name" : "tuchtexture.001", 
            "primitives" : [
                {
                    "attributes" : {
                        "NORMAL" : 2, 
                        "POSITION" : 1, 
                        "TANGENT" : 3, 
                        "TEXCOORD_0" : 4
                    }, 
                    "indices" : 0, 
                    "material" : 0
                }
            ]
        }
    ], 
    "nodes" : [
        {
            "mesh" : 0, 
            "name" : "tuchtexture", 
            "translation" : [
                0.0, 
                -0.009818149730563164, 
                -0.0
            ]
        }
    ], 
    "samplers" : [
        {}
    ], 
    "scene" : 0, 
    "scenes" : [
        {
            "name" : "Scene", 
            "nodes" : [
                0
            ]
        }
    ], 
    "textures" : [
        {
            "sampler" : 0, 
            "source" : 0
        }
    ]
}
