{
    "accessors" : [
        {
            "bufferView" : 0, 
            "componentType" : 5123, 
            "count" : 636, 
            "max" : [
                351
            ], 
            "min" : [
                0
            ], 
            "type" : "SCALAR"
        }, 
        {
            "bufferView" : 1, 
            "componentType" : 5126, 
            "count" : 352, 
            "max" : [
                1.0000004768371582, 
                1.0, 
                1.0000005960464478
            ], 
            "min" : [
                -1.0000003576278687, 
                -1.0, 
                -1.0000003576278687
            ], 
            "type" : "VEC3"
        }, 
        {
            "bufferView" : 2, 
            "componentType" : 5126, 
            "count" : 352, 
            "max" : [
                1.0, 
                1.0, 
                1.0
            ], 
            "min" : [
                -1.0, 
                -1.0, 
                -1.0
            ], 
            "type" : "VEC3"
        }, 
        {
            "bufferView" : 3, 
            "componentType" : 5126, 
            "count" : 352, 
            "max" : [
                0.8646055459976196, 
                1.0
            ], 
            "min" : [
                0.0, 
                9.292364120483398e-05
            ], 
            "type" : "VEC2"
        }
    ], 
    "asset" : {
        "generator" : "Khronos Blender glTF 2.0 exporter", 
        "version" : "2.0"
    }, 
    "bufferViews" : [
        {
            "buffer" : 0, 
            "byteLength" : 1272, 
            "byteOffset" : 0, 
            "target" : 34963
        }, 
        {
            "buffer" : 0, 
            "byteLength" : 4224, 
            "byteOffset" : 1272, 
            "target" : 34962
        }, 
        {
            "buffer" : 0, 
            "byteLength" : 4224, 
            "byteOffset" : 5496, 
            "target" : 34962
        }, 
        {
            "buffer" : 0, 
            "byteLength" : 2816, 
            "byteOffset" : 9720, 
            "target" : 34962
        }
    ], 
    "buffers" : [
        {
            "byteLength" : 12536, 
            "uri" : "box.bin"
        }
    ], 
    "images" : [
        {
            "uri" : "../../texture/whitepapertexture512.png"
        }
    ], 
    "materials" : [
        {
            "name" : "Box", 
            "pbrMetallicRoughness" : {
                "baseColorFactor" : [
                    0.800000011920929, 
                    0.800000011920929, 
                    0.800000011920929, 
                    1.0
                ], 
                "baseColorTexture" : {
                    "index" : 0
                }, 
                "metallicFactor" : 0.0
            }
        }
    ], 
    "meshes" : [
        {
            "name" : "Cube.003", 
            "primitives" : [
                {
                    "attributes" : {
                        "NORMAL" : 2, 
                        "POSITION" : 1, 
                        "TEXCOORD_0" : 3
                    }, 
                    "indices" : 0, 
                    "material" : 0
                }
            ]
        }
    ], 
    "nodes" : [
        {
            "mesh" : 0, 
            "name" : "untenbox", 
            "scale" : [
                0.3895382285118103, 
                0.1810172200202942, 
                0.10567502677440643
            ], 
            "translation" : [
                0.0, 
                -0.5297597646713257, 
                0.11142400652170181
            ]
        }
    ], 
    "samplers" : [
        {}
    ], 
    "scene" : 0, 
    "scenes" : [
        {
            "name" : "Scene", 
            "nodes" : [
                0
            ]
        }
    ], 
    "textures" : [
        {
            "sampler" : 0, 
            "source" : 0
        }
    ]
}
