{
    "accessors" : [
        {
            "bufferView" : 0, 
            "componentType" : 5123, 
            "count" : 42048, 
            "max" : [
                7632
            ], 
            "min" : [
                0
            ], 
            "type" : "SCALAR"
        }, 
        {
            "bufferView" : 1, 
            "componentType" : 5126, 
            "count" : 7633, 
            "max" : [
                5.061462879180908, 
                0.34733298420906067, 
                0.4946401119232178
            ], 
            "min" : [
                -7.8445539474487305, 
                -0.29680943489074707, 
                -0.4531310200691223
            ], 
            "type" : "VEC3"
        }, 
        {
            "bufferView" : 2, 
            "componentType" : 5126, 
            "count" : 7633, 
            "max" : [
                0.999969482421875, 
                0.999969482421875, 
                0.999969482421875
            ], 
            "min" : [
                -0.9962462186813354, 
                -0.999969482421875, 
                -0.999969482421875
            ], 
            "type" : "VEC3"
        }, 
        {
            "bufferView" : 3, 
            "componentType" : 5121, 
            "count" : 366, 
            "max" : [
                219
            ], 
            "min" : [
                0
            ], 
            "type" : "SCALAR"
        }, 
        {
            "bufferView" : 4, 
            "componentType" : 5126, 
            "count" : 220, 
            "max" : [
                2.158764362335205, 
                2.6241719722747803, 
                2.302816390991211
            ], 
            "min" : [
                -2.42164945602417, 
                -3.544454336166382, 
                -1.9926209449768066
            ], 
            "type" : "VEC3"
        }, 
        {
            "bufferView" : 5, 
            "componentType" : 5126, 
            "count" : 220, 
            "max" : [
                0.864452064037323, 
                0.950779914855957, 
                0.8592491149902344
            ], 
            "min" : [
                -0.9369962811470032, 
                -0.979066789150238, 
                -0.858018159866333
            ], 
            "type" : "VEC3"
        }, 
        {
            "bufferView" : 6, 
            "componentType" : 5123, 
            "count" : 8646, 
            "max" : [
                5462
            ], 
            "min" : [
                0
            ], 
            "type" : "SCALAR"
        }, 
        {
            "bufferView" : 7, 
            "componentType" : 5126, 
            "count" : 5463, 
            "max" : [
                3.5374350547790527, 
                3.3993797302246094, 
                2.530939817428589
            ], 
            "min" : [
                -4.007391929626465, 
                -2.9075469970703125, 
                -3.040053606033325
            ], 
            "type" : "VEC3"
        }, 
        {
            "bufferView" : 8, 
            "componentType" : 5126, 
            "count" : 5463, 
            "max" : [
                0.9997407793998718, 
                0.9779053330421448, 
                0.9998959898948669
            ], 
            "min" : [
                -0.9992903470993042, 
                -0.9748988747596741, 
                -0.9990701675415039
            ], 
            "type" : "VEC3"
        }, 
        {
            "bufferView" : 9, 
            "componentType" : 5121, 
            "count" : 546, 
            "max" : [
                97
            ], 
            "min" : [
                0
            ], 
            "type" : "SCALAR"
        }, 
        {
            "bufferView" : 10, 
            "componentType" : 5126, 
            "count" : 98, 
            "max" : [
                0.6990990042686462, 
                2.0480074882507324, 
                0.7044324278831482
            ], 
            "min" : [
                -0.6940503716468811, 
                -1.8270632028579712, 
                -0.6340351700782776
            ], 
            "type" : "VEC3"
        }, 
        {
            "bufferView" : 11, 
            "componentType" : 5126, 
            "count" : 98, 
            "max" : [
                0.9863582253456116, 
                0.9671925902366638, 
                0.982207715511322
            ], 
            "min" : [
                -0.9868159890174866, 
                -0.965697169303894, 
                -0.982207715511322
            ], 
            "type" : "VEC3"
        }, 
        {
            "bufferView" : 12, 
            "componentType" : 5121, 
            "count" : 339, 
            "max" : [
                90
            ], 
            "min" : [
                0
            ], 
            "type" : "SCALAR"
        }, 
        {
            "bufferView" : 13, 
            "componentType" : 5126, 
            "count" : 91, 
            "max" : [
                14.682446479797363, 
                2.306516170501709, 
                0.9989253878593445
            ], 
            "min" : [
                -0.9533914923667908, 
                -23.219640731811523, 
                -17.65435791015625
            ], 
            "type" : "VEC3"
        }, 
        {
            "bufferView" : 14, 
            "componentType" : 5126, 
            "count" : 91, 
            "max" : [
                0.9749314785003662, 
                1.0, 
                1.0
            ], 
            "min" : [
                -0.9804986715316772, 
                -0.9725028276443481, 
                -0.9677113890647888
            ], 
            "type" : "VEC3"
        }, 
        {
            "bufferView" : 15, 
            "componentType" : 5123, 
            "count" : 744, 
            "max" : [
                457
            ], 
            "min" : [
                0
            ], 
            "type" : "SCALAR"
        }, 
        {
            "bufferView" : 16, 
            "componentType" : 5126, 
            "count" : 458, 
            "max" : [
                2.211148977279663, 
                3.1129322052001953, 
                1.583353042602539
            ], 
            "min" : [
                -0.9459096789360046, 
                -3.2981910705566406, 
                -1.1378116607666016
            ], 
            "type" : "VEC3"
        }, 
        {
            "bufferView" : 17, 
            "componentType" : 5126, 
            "count" : 458, 
            "max" : [
                0.9749277830123901, 
                1.0, 
                1.0
            ], 
            "min" : [
                -0.9749277830123901, 
                -1.0, 
                -0.9009698629379272
            ], 
            "type" : "VEC3"
        }
    ], 
    "asset" : {
        "generator" : "Khronos Blender glTF 2.0 exporter", 
        "version" : "2.0"
    }, 
    "bufferViews" : [
        {
            "buffer" : 0, 
            "byteLength" : 84096, 
            "byteOffset" : 0, 
            "target" : 34963
        }, 
        {
            "buffer" : 0, 
            "byteLength" : 91596, 
            "byteOffset" : 84096, 
            "target" : 34962
        }, 
        {
            "buffer" : 0, 
            "byteLength" : 91596, 
            "byteOffset" : 175692, 
            "target" : 34962
        }, 
        {
            "buffer" : 0, 
            "byteLength" : 366, 
            "byteOffset" : 267288, 
            "target" : 34963
        }, 
        {
            "buffer" : 0, 
            "byteLength" : 2640, 
            "byteOffset" : 267656, 
            "target" : 34962
        }, 
        {
            "buffer" : 0, 
            "byteLength" : 2640, 
            "byteOffset" : 270296, 
            "target" : 34962
        }, 
        {
            "buffer" : 0, 
            "byteLength" : 17292, 
            "byteOffset" : 272936, 
            "target" : 34963
        }, 
        {
            "buffer" : 0, 
            "byteLength" : 65556, 
            "byteOffset" : 290228, 
            "target" : 34962
        }, 
        {
            "buffer" : 0, 
            "byteLength" : 65556, 
            "byteOffset" : 355784, 
            "target" : 34962
        }, 
        {
            "buffer" : 0, 
            "byteLength" : 546, 
            "byteOffset" : 421340, 
            "target" : 34963
        }, 
        {
            "buffer" : 0, 
            "byteLength" : 1176, 
            "byteOffset" : 421888, 
            "target" : 34962
        }, 
        {
            "buffer" : 0, 
            "byteLength" : 1176, 
            "byteOffset" : 423064, 
            "target" : 34962
        }, 
        {
            "buffer" : 0, 
            "byteLength" : 339, 
            "byteOffset" : 424240, 
            "target" : 34963
        }, 
        {
            "buffer" : 0, 
            "byteLength" : 1092, 
            "byteOffset" : 424580, 
            "target" : 34962
        }, 
        {
            "buffer" : 0, 
            "byteLength" : 1092, 
            "byteOffset" : 425672, 
            "target" : 34962
        }, 
        {
            "buffer" : 0, 
            "byteLength" : 1488, 
            "byteOffset" : 426764, 
            "target" : 34963
        }, 
        {
            "buffer" : 0, 
            "byteLength" : 5496, 
            "byteOffset" : 428252, 
            "target" : 34962
        }, 
        {
            "buffer" : 0, 
            "byteLength" : 5496, 
            "byteOffset" : 433748, 
            "target" : 34962
        }
    ], 
    "buffers" : [
        {
            "byteLength" : 439244, 
            "uri" : "7_2_Infusion_hanged.bin"
        }
    ], 
    "materials" : [
        {
            "name" : "Plasticgreen", 
            "pbrMetallicRoughness" : {
                "baseColorFactor" : [
                    0.02787123476028408, 
                    0.12462112205128495, 
                    0.018088864927158887, 
                    1.0
                ], 
                "metallicFactor" : 0.0
            }
        }, 
        {
            "alphaMode" : "BLEND", 
            "name" : "Plastichard", 
            "pbrMetallicRoughness" : {
                "baseColorFactor" : [
                    0.536551721938725, 
                    0.536551721938725, 
                    0.536551721938725, 
                    0.32203391194343567
                ], 
                "metallicFactor" : 0.0
            }
        }, 
        {
            "name" : "Plasticyellow.001", 
            "pbrMetallicRoughness" : {
                "baseColorFactor" : [
                    0.17003040887436782, 
                    0.14183992351711083, 
                    0.009607830634290382, 
                    1.0
                ], 
                "metallicFactor" : 0.0
            }
        }
    ], 
    "meshes" : [
        {
            "name" : "Mesh", 
            "primitives" : [
                {
                    "attributes" : {
                        "NORMAL" : 2, 
                        "POSITION" : 1
                    }, 
                    "indices" : 0, 
                    "material" : 1
                }
            ]
        }, 
        {
            "name" : "Cylinder.003", 
            "primitives" : [
                {
                    "attributes" : {
                        "NORMAL" : 5, 
                        "POSITION" : 4
                    }, 
                    "indices" : 3, 
                    "material" : 2
                }
            ]
        }, 
        {
            "name" : "Cylinder.006", 
            "primitives" : [
                {
                    "attributes" : {
                        "NORMAL" : 8, 
                        "POSITION" : 7
                    }, 
                    "indices" : 6, 
                    "material" : 1
                }
            ]
        }, 
        {
            "name" : "Cylinder.002", 
            "primitives" : [
                {
                    "attributes" : {
                        "NORMAL" : 11, 
                        "POSITION" : 10
                    }, 
                    "indices" : 9, 
                    "material" : 1
                }
            ]
        }, 
        {
            "name" : "Cylinder.000", 
            "primitives" : [
                {
                    "attributes" : {
                        "NORMAL" : 14, 
                        "POSITION" : 13
                    }, 
                    "indices" : 12, 
                    "material" : 0
                }
            ]
        }, 
        {
            "name" : "Cylinder.011", 
            "primitives" : [
                {
                    "attributes" : {
                        "NORMAL" : 17, 
                        "POSITION" : 16
                    }, 
                    "indices" : 15, 
                    "material" : 0
                }
            ]
        }
    ], 
    "nodes" : [
        {
            "mesh" : 0, 
            "name" : "BezierCurve", 
            "translation" : [
                1.1730973720550537, 
                -0.27908921241760254, 
                0.32345423102378845
            ]
        }, 
        {
            "mesh" : 3, 
            "name" : "DeckeGreen", 
            "rotation" : [
                0.5059912800788879, 
                -0.6855404376983643, 
                -0.3520929217338562, 
                0.3873470425605774
            ], 
            "scale" : [
                0.13169129192829132, 
                0.04818302020430565, 
                0.13169127702713013
            ], 
            "translation" : [
                6.278493404388428, 
                -0.3761965334415436, 
                0.7556548118591309
            ]
        }, 
        {
            "mesh" : 4, 
            "name" : "DeckerGreen0", 
            "rotation" : [
                -0.7214798331260681, 
                -0.017732596024870872, 
                -0.6336086988449097, 
                0.27873361110687256
            ], 
            "scale" : [
                0.13169124722480774, 
                0.04818301647901535, 
                0.13169130682945251
            ], 
            "translation" : [
                6.376257419586182, 
                -0.3799627423286438, 
                0.7736674547195435
            ]
        }, 
        {
            "mesh" : 1, 
            "name" : "Einstellung", 
            "rotation" : [
                0.27725791931152344, 
                -0.2630883455276489, 
                -0.921984076499939, 
                0.062112148851156235
            ], 
            "scale" : [
                0.18264515697956085, 
                0.06682594865560532, 
                0.18264515697956085
            ], 
            "translation" : [
                -4.323025226593018, 
                -0.051743440330028534, 
                0.2763564884662628
            ]
        }, 
        {
            "mesh" : 2, 
            "name" : "ObernTeil", 
            "rotation" : [
                -0.28071215748786926, 
                -0.3596431314945221, 
                0.8850666284561157, 
                0.0922752320766449
            ], 
            "scale" : [
                0.18264515697956085, 
                0.06682594865560532, 
                0.18264515697956085
            ], 
            "translation" : [
                -7.488339900970459, 
                -0.06184334307909012, 
                0.21538767218589783
            ]
        }, 
        {
            "mesh" : 5, 
            "name" : "RingGreen0", 
            "rotation" : [
                -0.28071215748786926, 
                -0.3596431314945221, 
                0.8850666284561157, 
                0.0922752320766449
            ], 
            "scale" : [
                0.18264515697956085, 
                0.06682594865560532, 
                0.18264515697956085
            ], 
            "translation" : [
                -7.251600742340088, 
                -0.07724588364362717, 
                0.2114638090133667
            ]
        }
    ], 
    "scene" : 0, 
    "scenes" : [
        {
            "name" : "Scene", 
            "nodes" : [
                4, 
                3, 
                1, 
                0, 
                2, 
                5
            ]
        }
    ]
}
