{
    "accessors" : [
        {
            "bufferView" : 0, 
            "componentType" : 5123, 
            "count" : 756, 
            "max" : [
                387
            ], 
            "min" : [
                0
            ], 
            "type" : "SCALAR"
        }, 
        {
            "bufferView" : 1, 
            "componentType" : 5126, 
            "count" : 388, 
            "max" : [
                0.17999982833862305, 
                0.3648397922515869, 
                0.18000006675720215
            ], 
            "min" : [
                -0.18000024557113647, 
                -0.38516008853912354, 
                -0.18000006675720215
            ], 
            "type" : "VEC3"
        }, 
        {
            "bufferView" : 2, 
            "componentType" : 5126, 
            "count" : 388, 
            "max" : [
                0.9951848983764648, 
                1.0, 
                0.9951847791671753
            ], 
            "min" : [
                -0.9951848387718201, 
                -0.9999999403953552, 
                -0.9951851963996887
            ], 
            "type" : "VEC3"
        }
    ], 
    "asset" : {
        "generator" : "Khronos Blender glTF 2.0 exporter", 
        "version" : "2.0"
    }, 
    "bufferViews" : [
        {
            "buffer" : 0, 
            "byteLength" : 1512, 
            "byteOffset" : 0, 
            "target" : 34963
        }, 
        {
            "buffer" : 0, 
            "byteLength" : 4656, 
            "byteOffset" : 1512, 
            "target" : 34962
        }, 
        {
            "buffer" : 0, 
            "byteLength" : 4656, 
            "byteOffset" : 6168, 
            "target" : 34962
        }
    ], 
    "buffers" : [
        {
            "byteLength" : 10824, 
            "uri" : "2_Infusion_open_cap_center.bin"
        }
    ], 
    "materials" : [
        {
            "name" : "Plastic", 
            "pbrMetallicRoughness" : {
                "baseColorFactor" : [
                    0.44000001609325423, 
                    0.44000001609325423, 
                    0.44000001609325423, 
                    1.0
                ], 
                "metallicFactor" : 0.0
            }
        }
    ], 
    "meshes" : [
        {
            "name" : "Cylinder.005", 
            "primitives" : [
                {
                    "attributes" : {
                        "NORMAL" : 2, 
                        "POSITION" : 1
                    }, 
                    "indices" : 0, 
                    "material" : 0
                }
            ]
        }
    ], 
    "nodes" : [
        {
            "mesh" : 0, 
            "name" : "Cylinder", 
            "rotation" : [
                0.13537107408046722, 
                0.14330275356769562, 
                0.660851776599884, 
                0.7241643667221069
            ], 
            "scale" : [
                0.46335849165916443, 
                0.795839786529541, 
                0.46335843205451965
            ], 
            "translation" : [
                -1.7881393432617188e-07, 
                -2.9802322387695312e-08, 
                2.384185791015625e-07
            ]
        }
    ], 
    "scene" : 0, 
    "scenes" : [
        {
            "name" : "Scene", 
            "nodes" : [
                0
            ]
        }
    ]
}
