{
    "accessors" : [
        {
            "bufferView" : 0, 
            "componentType" : 5121, 
            "count" : 288, 
            "max" : [
                95
            ], 
            "min" : [
                0
            ], 
            "type" : "SCALAR"
        }, 
        {
            "bufferView" : 1, 
            "componentType" : 5126, 
            "count" : 96, 
            "max" : [
                -4.43605375289917, 
                0.26749515533447266, 
                -2.976466178894043
            ], 
            "min" : [
                -4.817556858062744, 
                -1.772822380065918, 
                -3.6181955337524414
            ], 
            "type" : "VEC3"
        }, 
        {
            "bufferView" : 2, 
            "componentType" : 5126, 
            "count" : 96, 
            "max" : [
                0.860591471195221, 
                -0.0021057771518826485, 
                0.5203100442886353
            ], 
            "min" : [
                0.8539384007453918, 
                -0.0068666646257042885, 
                0.5092318654060364
            ], 
            "type" : "VEC3"
        }, 
        {
            "bufferView" : 3, 
            "componentType" : 5123, 
            "count" : 38016, 
            "max" : [
                6383
            ], 
            "min" : [
                0
            ], 
            "type" : "SCALAR"
        }, 
        {
            "bufferView" : 4, 
            "componentType" : 5126, 
            "count" : 6384, 
            "max" : [
                -1.3596391677856445, 
                24.760391235351562, 
                16.99493980407715
            ], 
            "min" : [
                -21.051109313964844, 
                -1.5336875915527344, 
                -10.507701873779297
            ], 
            "type" : "VEC3"
        }, 
        {
            "bufferView" : 5, 
            "componentType" : 5126, 
            "count" : 6384, 
            "max" : [
                0.999786376953125, 
                0.9993896484375, 
                0.99981689453125
            ], 
            "min" : [
                -0.99981689453125, 
                -0.9989928603172302, 
                -0.9996337890625
            ], 
            "type" : "VEC3"
        }, 
        {
            "bufferView" : 6, 
            "componentType" : 5121, 
            "count" : 288, 
            "max" : [
                95
            ], 
            "min" : [
                0
            ], 
            "type" : "SCALAR"
        }, 
        {
            "bufferView" : 7, 
            "componentType" : 5126, 
            "count" : 96, 
            "max" : [
                -14.634828567504883, 
                22.89593505859375, 
                16.401737213134766
            ], 
            "min" : [
                -15.37711238861084, 
                20.95961570739746, 
                16.151874542236328
            ], 
            "type" : "VEC3"
        }, 
        {
            "bufferView" : 8, 
            "componentType" : 5126, 
            "count" : 96, 
            "max" : [
                0.1517075151205063, 
                0.12997832894325256, 
                0.9875789880752563
            ], 
            "min" : [
                0.1028778925538063, 
                0.1112094521522522, 
                0.9808648824691772
            ], 
            "type" : "VEC3"
        }, 
        {
            "bufferView" : 9, 
            "componentType" : 5123, 
            "count" : 38016, 
            "max" : [
                6383
            ], 
            "min" : [
                0
            ], 
            "type" : "SCALAR"
        }, 
        {
            "bufferView" : 10, 
            "componentType" : 5126, 
            "count" : 6384, 
            "max" : [
                -1.2721261978149414, 
                24.999469757080078, 
                17.082427978515625
            ], 
            "min" : [
                -21.13861846923828, 
                -1.772822380065918, 
                -10.595282554626465
            ], 
            "type" : "VEC3"
        }, 
        {
            "bufferView" : 11, 
            "componentType" : 5126, 
            "count" : 6384, 
            "max" : [
                0.99981689453125, 
                0.9989013075828552, 
                0.999603271484375
            ], 
            "min" : [
                -0.999786376953125, 
                -0.99945068359375, 
                -0.999847412109375
            ], 
            "type" : "VEC3"
        }, 
        {
            "bufferView" : 12, 
            "componentType" : 5123, 
            "count" : 8646, 
            "max" : [
                5462
            ], 
            "min" : [
                0
            ], 
            "type" : "SCALAR"
        }, 
        {
            "bufferView" : 13, 
            "componentType" : 5126, 
            "count" : 5463, 
            "max" : [
                2.489809513092041, 
                2.0453782081604004, 
                1.79252028465271
            ], 
            "min" : [
                -5.05501651763916, 
                -4.261548042297363, 
                -3.778472423553467
            ], 
            "type" : "VEC3"
        }, 
        {
            "bufferView" : 14, 
            "componentType" : 5126, 
            "count" : 5463, 
            "max" : [
                0.9997408390045166, 
                0.9779101610183716, 
                0.9998961091041565
            ], 
            "min" : [
                -0.999290406703949, 
                -0.9748958945274353, 
                -0.9990700483322144
            ], 
            "type" : "VEC3"
        }, 
        {
            "bufferView" : 15, 
            "componentType" : 5123, 
            "count" : 1026, 
            "max" : [
                513
            ], 
            "min" : [
                0
            ], 
            "type" : "SCALAR"
        }, 
        {
            "bufferView" : 16, 
            "componentType" : 5126, 
            "count" : 514, 
            "max" : [
                0.12674061954021454, 
                25.441158294677734, 
                18.523284912109375
            ], 
            "min" : [
                -15.509096145629883, 
                -4.376713752746582, 
                -2.604038953781128
            ], 
            "type" : "VEC3"
        }, 
        {
            "bufferView" : 17, 
            "componentType" : 5126, 
            "count" : 514, 
            "max" : [
                0.9749279618263245, 
                1.0, 
                1.0
            ], 
            "min" : [
                -0.9804986715316772, 
                -1.0, 
                -0.9677113890647888
            ], 
            "type" : "VEC3"
        }, 
        {
            "bufferView" : 18, 
            "componentType" : 5121, 
            "count" : 366, 
            "max" : [
                219
            ], 
            "min" : [
                0
            ], 
            "type" : "SCALAR"
        }, 
        {
            "bufferView" : 19, 
            "componentType" : 5126, 
            "count" : 220, 
            "max" : [
                2.1695480346679688, 
                3.2780628204345703, 
                2.1385552883148193
            ], 
            "min" : [
                -2.4108657836914062, 
                -2.89056396484375, 
                -2.074721097946167
            ], 
            "type" : "VEC3"
        }, 
        {
            "bufferView" : 20, 
            "componentType" : 5126, 
            "count" : 220, 
            "max" : [
                0.8671615719795227, 
                0.6733846664428711, 
                0.8632026314735413
            ], 
            "min" : [
                -0.9911874532699585, 
                -0.9162393808364868, 
                -0.8580180406570435
            ], 
            "type" : "VEC3"
        }
    ], 
    "asset" : {
        "generator" : "Khronos Blender glTF 2.0 exporter", 
        "version" : "2.0"
    }, 
    "bufferViews" : [
        {
            "buffer" : 0, 
            "byteLength" : 288, 
            "byteOffset" : 0, 
            "target" : 34963
        }, 
        {
            "buffer" : 0, 
            "byteLength" : 1152, 
            "byteOffset" : 288, 
            "target" : 34962
        }, 
        {
            "buffer" : 0, 
            "byteLength" : 1152, 
            "byteOffset" : 1440, 
            "target" : 34962
        }, 
        {
            "buffer" : 0, 
            "byteLength" : 76032, 
            "byteOffset" : 2592, 
            "target" : 34963
        }, 
        {
            "buffer" : 0, 
            "byteLength" : 76608, 
            "byteOffset" : 78624, 
            "target" : 34962
        }, 
        {
            "buffer" : 0, 
            "byteLength" : 76608, 
            "byteOffset" : 155232, 
            "target" : 34962
        }, 
        {
            "buffer" : 0, 
            "byteLength" : 288, 
            "byteOffset" : 231840, 
            "target" : 34963
        }, 
        {
            "buffer" : 0, 
            "byteLength" : 1152, 
            "byteOffset" : 232128, 
            "target" : 34962
        }, 
        {
            "buffer" : 0, 
            "byteLength" : 1152, 
            "byteOffset" : 233280, 
            "target" : 34962
        }, 
        {
            "buffer" : 0, 
            "byteLength" : 76032, 
            "byteOffset" : 234432, 
            "target" : 34963
        }, 
        {
            "buffer" : 0, 
            "byteLength" : 76608, 
            "byteOffset" : 310464, 
            "target" : 34962
        }, 
        {
            "buffer" : 0, 
            "byteLength" : 76608, 
            "byteOffset" : 387072, 
            "target" : 34962
        }, 
        {
            "buffer" : 0, 
            "byteLength" : 17292, 
            "byteOffset" : 463680, 
            "target" : 34963
        }, 
        {
            "buffer" : 0, 
            "byteLength" : 65556, 
            "byteOffset" : 480972, 
            "target" : 34962
        }, 
        {
            "buffer" : 0, 
            "byteLength" : 65556, 
            "byteOffset" : 546528, 
            "target" : 34962
        }, 
        {
            "buffer" : 0, 
            "byteLength" : 2052, 
            "byteOffset" : 612084, 
            "target" : 34963
        }, 
        {
            "buffer" : 0, 
            "byteLength" : 6168, 
            "byteOffset" : 614136, 
            "target" : 34962
        }, 
        {
            "buffer" : 0, 
            "byteLength" : 6168, 
            "byteOffset" : 620304, 
            "target" : 34962
        }, 
        {
            "buffer" : 0, 
            "byteLength" : 366, 
            "byteOffset" : 626472, 
            "target" : 34963
        }, 
        {
            "buffer" : 0, 
            "byteLength" : 2640, 
            "byteOffset" : 626840, 
            "target" : 34962
        }, 
        {
            "buffer" : 0, 
            "byteLength" : 2640, 
            "byteOffset" : 629480, 
            "target" : 34962
        }
    ], 
    "buffers" : [
        {
            "byteLength" : 632120, 
            "uri" : "2_Infusion_open.bin"
        }
    ], 
    "materials" : [
        {
            "name" : "Plastic", 
            "pbrMetallicRoughness" : {
                "baseColorFactor" : [
                    0.44000001609325423, 
                    0.44000001609325423, 
                    0.44000001609325423, 
                    1.0
                ], 
                "metallicFactor" : 0.0
            }
        }, 
        {
            "name" : "Plasticgreen.001", 
            "pbrMetallicRoughness" : {
                "baseColorFactor" : [
                    0.02787123476028408, 
                    0.12462112205128495, 
                    0.018088864927158887, 
                    1.0
                ], 
                "metallicFactor" : 0.0
            }
        }, 
        {
            "alphaMode" : "BLEND", 
            "name" : "Plastichard.001", 
            "pbrMetallicRoughness" : {
                "baseColorFactor" : [
                    0.536551721938725, 
                    0.536551721938725, 
                    0.536551721938725, 
                    0.32203391194343567
                ], 
                "metallicFactor" : 0.0
            }
        }, 
        {
            "name" : "Plasticyellow.001", 
            "pbrMetallicRoughness" : {
                "baseColorFactor" : [
                    0.17003040887436782, 
                    0.14183992351711083, 
                    0.009607830634290382, 
                    1.0
                ], 
                "metallicFactor" : 0.0
            }
        }
    ], 
    "meshes" : [
        {
            "name" : "Cylinder.009", 
            "primitives" : [
                {
                    "attributes" : {
                        "NORMAL" : 2, 
                        "POSITION" : 1
                    }, 
                    "indices" : 0, 
                    "material" : 0
                }
            ]
        }, 
        {
            "name" : "Cylinder.010", 
            "primitives" : [
                {
                    "attributes" : {
                        "NORMAL" : 5, 
                        "POSITION" : 4
                    }, 
                    "indices" : 3, 
                    "material" : 2
                }
            ]
        }, 
        {
            "name" : "Cylinder.007", 
            "primitives" : [
                {
                    "attributes" : {
                        "NORMAL" : 8, 
                        "POSITION" : 7
                    }, 
                    "indices" : 6, 
                    "material" : 0
                }
            ]
        }, 
        {
            "name" : "Cylinder.008", 
            "primitives" : [
                {
                    "attributes" : {
                        "NORMAL" : 11, 
                        "POSITION" : 10
                    }, 
                    "indices" : 9, 
                    "material" : 2
                }
            ]
        }, 
        {
            "name" : "Cylinder.006", 
            "primitives" : [
                {
                    "attributes" : {
                        "NORMAL" : 14, 
                        "POSITION" : 13
                    }, 
                    "indices" : 12, 
                    "material" : 2
                }
            ]
        }, 
        {
            "name" : "Cylinder.004", 
            "primitives" : [
                {
                    "attributes" : {
                        "NORMAL" : 17, 
                        "POSITION" : 16
                    }, 
                    "indices" : 15, 
                    "material" : 1
                }
            ]
        }, 
        {
            "name" : "Cylinder.003", 
            "primitives" : [
                {
                    "attributes" : {
                        "NORMAL" : 20, 
                        "POSITION" : 19
                    }, 
                    "indices" : 18, 
                    "material" : 3
                }
            ]
        }
    ], 
    "nodes" : [
        {
            "mesh" : 6, 
            "name" : "decker.002", 
            "rotation" : [
                0.8742281198501587, 
                0.20683501660823822, 
                0.02640713006258011, 
                0.4384599030017853
            ], 
            "scale" : [
                0.18264515697956085, 
                0.06682594865560532, 
                0.18264515697956085
            ], 
            "translation" : [
                -1.9740419387817383, 
                0.5324299931526184, 
                -1.1749019622802734
            ]
        }, 
        {
            "mesh" : 5, 
            "name" : "decker.003", 
            "rotation" : [
                0.2009539157152176, 
                0.4589686393737793, 
                0.01546591054648161, 
                0.8652897477149963
            ], 
            "scale" : [
                0.18264515697956085, 
                0.06682594865560532, 
                0.18264515697956085
            ], 
            "translation" : [
                0.3377777636051178, 
                0.5316631197929382, 
                -2.0299456119537354
            ]
        }, 
        {
            "mesh" : 4, 
            "name" : "decker.004", 
            "rotation" : [
                0.2009539157152176, 
                0.4589686393737793, 
                0.01546591054648161, 
                0.8652897477149963
            ], 
            "scale" : [
                0.18264515697956085, 
                0.06682594865560532, 
                0.18264515697956085
            ], 
            "translation" : [
                0.3377777636051178, 
                0.5316631197929382, 
                -2.0299456119537354
            ]
        }, 
        {
            "mesh" : 2, 
            "name" : "decker.005", 
            "rotation" : [
                0.2009539157152176, 
                0.4589686393737793, 
                0.01546591054648161, 
                0.8652897477149963
            ], 
            "scale" : [
                0.18264515697956085, 
                0.06682594865560532, 
                0.18264515697956085
            ], 
            "translation" : [
                0.3377777636051178, 
                0.5316631197929382, 
                -2.0299456119537354
            ]
        }, 
        {
            "mesh" : 3, 
            "name" : "decker.006", 
            "rotation" : [
                0.2009539157152176, 
                0.4589686393737793, 
                0.01546591054648161, 
                0.8652897477149963
            ], 
            "scale" : [
                0.18264515697956085, 
                0.06682594865560532, 
                0.18264515697956085
            ], 
            "translation" : [
                0.3377777636051178, 
                0.5316631197929382, 
                -2.0299456119537354
            ]
        }, 
        {
            "mesh" : 0, 
            "name" : "decker.007", 
            "rotation" : [
                0.2009539157152176, 
                0.4589686393737793, 
                0.01546591054648161, 
                0.8652897477149963
            ], 
            "scale" : [
                0.18264515697956085, 
                0.06682594865560532, 
                0.18264515697956085
            ], 
            "translation" : [
                0.3377777636051178, 
                0.5316631197929382, 
                -2.0299456119537354
            ]
        }, 
        {
            "mesh" : 1, 
            "name" : "decker.008", 
            "rotation" : [
                0.2009539157152176, 
                0.4589686393737793, 
                0.01546591054648161, 
                0.8652897477149963
            ], 
            "scale" : [
                0.18264515697956085, 
                0.06682594865560532, 
                0.18264515697956085
            ], 
            "translation" : [
                0.3377777636051178, 
                0.5316631197929382, 
                -2.0299456119537354
            ]
        }
    ], 
    "scene" : 0, 
    "scenes" : [
        {
            "name" : "Scene", 
            "nodes" : [
                6, 
                5, 
                4, 
                3, 
                2, 
                1, 
                0
            ]
        }
    ]
}
