{
    "accessors" : [
        {
            "bufferView" : 0, 
            "componentType" : 5123, 
            "count" : 1548, 
            "max" : [
                639
            ], 
            "min" : [
                0
            ], 
            "type" : "SCALAR"
        }, 
        {
            "bufferView" : 1, 
            "componentType" : 5126, 
            "count" : 640, 
            "max" : [
                1.1479133367538452, 
                0.2607424557209015, 
                0.47679147124290466
            ], 
            "min" : [
                -1.1479133367538452, 
                -0.03033214434981346, 
                -2.00477933883667
            ], 
            "type" : "VEC3"
        }, 
        {
            "bufferView" : 2, 
            "componentType" : 5126, 
            "count" : 640, 
            "max" : [
                1.0, 
                1.0, 
                1.0
            ], 
            "min" : [
                -1.0, 
                -1.0, 
                -1.0
            ], 
            "type" : "VEC3"
        }, 
        {
            "bufferView" : 3, 
            "componentType" : 5126, 
            "count" : 640, 
            "max" : [
                1.0, 
                1.0
            ], 
            "min" : [
                0.0, 
                0.0
            ], 
            "type" : "VEC2"
        }
    ], 
    "asset" : {
        "generator" : "Khronos Blender glTF 2.0 exporter", 
        "version" : "2.0"
    }, 
    "bufferViews" : [
        {
            "buffer" : 0, 
            "byteLength" : 3096, 
            "byteOffset" : 0, 
            "target" : 34963
        }, 
        {
            "buffer" : 0, 
            "byteLength" : 7680, 
            "byteOffset" : 3096, 
            "target" : 34962
        }, 
        {
            "buffer" : 0, 
            "byteLength" : 7680, 
            "byteOffset" : 10776, 
            "target" : 34962
        }, 
        {
            "buffer" : 0, 
            "byteLength" : 5120, 
            "byteOffset" : 18456, 
            "target" : 34962
        }
    ], 
    "buffers" : [
        {
            "byteLength" : 23576, 
            "uri" : "shelfBody.bin"
        }
    ], 
    "images" : [
        {
            "uri" : "../../texture/silverMetalTexture512.png"
        }
    ], 
    "materials" : [
        {
            "name" : "Regal", 
            "pbrMetallicRoughness" : {
                "baseColorFactor" : [
                    0.6143406005850522, 
                    0.640000066757203, 
                    0.48725205193835563, 
                    1.0
                ], 
                "baseColorTexture" : {
                    "index" : 0
                }, 
                "metallicFactor" : 0.0
            }
        }
    ], 
    "meshes" : [
        {
            "name" : "Plane", 
            "primitives" : [
                {
                    "attributes" : {
                        "NORMAL" : 2, 
                        "POSITION" : 1, 
                        "TEXCOORD_0" : 3
                    }, 
                    "indices" : 0, 
                    "material" : 0
                }
            ]
        }
    ], 
    "nodes" : [
        {
            "mesh" : 0, 
            "name" : "standert", 
            "rotation" : [
                0.7071068286895752, 
                0.0, 
                -0.0, 
                0.7071068286895752
            ], 
            "scale" : [
                0.5378320813179016, 
                1.0, 
                0.6619229912757874
            ], 
            "translation" : [
                0.019033875316381454, 
                -0.5587761402130127, 
                -0.0023132264614105225
            ]
        }
    ], 
    "samplers" : [
        {}
    ], 
    "scene" : 0, 
    "scenes" : [
        {
            "name" : "Scene", 
            "nodes" : [
                0
            ]
        }
    ], 
    "textures" : [
        {
            "sampler" : 0, 
            "source" : 0
        }
    ]
}
