{
    "accessors" : [
        {
            "bufferView" : 0, 
            "componentType" : 5123, 
            "count" : 3396, 
            "max" : [
                1807
            ], 
            "min" : [
                0
            ], 
            "type" : "SCALAR"
        }, 
        {
            "bufferView" : 1, 
            "componentType" : 5126, 
            "count" : 1808, 
            "max" : [
                0.6067422032356262, 
                1.8058345317840576, 
                0.9807853102684021
            ], 
            "min" : [
                -0.6067423820495605, 
                -1.0241925716400146, 
                -0.9807855486869812
            ], 
            "type" : "VEC3"
        }, 
        {
            "bufferView" : 2, 
            "componentType" : 5126, 
            "count" : 1808, 
            "max" : [
                1.0, 
                1.0, 
                1.0
            ], 
            "min" : [
                -1.0, 
                -1.0, 
                -1.0
            ], 
            "type" : "VEC3"
        }, 
        {
            "bufferView" : 3, 
            "componentType" : 5126, 
            "count" : 1808, 
            "max" : [
                0.999894380569458, 
                0.9998943521859474
            ], 
            "min" : [
                0.00010564781405264512, 
                0.04427659511566162
            ], 
            "type" : "VEC2"
        }
    ], 
    "asset" : {
        "generator" : "Khronos Blender glTF 2.0 exporter", 
        "version" : "2.0"
    }, 
    "bufferViews" : [
        {
            "buffer" : 0, 
            "byteLength" : 6792, 
            "byteOffset" : 0, 
            "target" : 34963
        }, 
        {
            "buffer" : 0, 
            "byteLength" : 21696, 
            "byteOffset" : 6792, 
            "target" : 34962
        }, 
        {
            "buffer" : 0, 
            "byteLength" : 21696, 
            "byteOffset" : 28488, 
            "target" : 34962
        }, 
        {
            "buffer" : 0, 
            "byteLength" : 14464, 
            "byteOffset" : 50184, 
            "target" : 34962
        }
    ], 
    "buffers" : [
        {
            "byteLength" : 64648, 
            "uri" : "bottleWithoutLiquid.bin"
        }
    ], 
    "materials" : [
        {
            "alphaMode" : "BLEND", 
            "name" : "Material.001", 
            "pbrMetallicRoughness" : {
                "baseColorFactor" : [
                    0.5514666639486947, 
                    0.5514666639486947, 
                    0.5514666639486947, 
                    0.3333333432674408
                ], 
                "metallicFactor" : 0.0
            }
        }
    ], 
    "meshes" : [
        {
            "name" : "Cube", 
            "primitives" : [
                {
                    "attributes" : {
                        "NORMAL" : 2, 
                        "POSITION" : 1, 
                        "TEXCOORD_0" : 3
                    }, 
                    "indices" : 0, 
                    "material" : 0
                }
            ]
        }
    ], 
    "nodes" : [
        {
            "mesh" : 0, 
            "name" : "Bottle", 
            "scale" : [
                0.5, 
                0.5, 
                0.5
            ]
        }
    ], 
    "scene" : 0, 
    "scenes" : [
        {
            "name" : "Scene", 
            "nodes" : [
                0
            ]
        }
    ]
}
