{
    "accessors" : [
        {
            "bufferView" : 0, 
            "componentType" : 5123, 
            "count" : 708, 
            "max" : [
                419
            ], 
            "min" : [
                0
            ], 
            "type" : "SCALAR"
        }, 
        {
            "bufferView" : 1, 
            "componentType" : 5126, 
            "count" : 420, 
            "max" : [
                0.561107873916626, 
                0.317926287651062, 
                0.9071148633956909
            ], 
            "min" : [
                -0.561217725276947, 
                -1.5332101583480835, 
                -0.9070996046066284
            ], 
            "type" : "VEC3"
        }, 
        {
            "bufferView" : 2, 
            "componentType" : 5126, 
            "count" : 420, 
            "max" : [
                1.0, 
                1.0, 
                1.0
            ], 
            "min" : [
                -1.0, 
                -1.0, 
                -1.0
            ], 
            "type" : "VEC3"
        }
    ], 
    "asset" : {
        "generator" : "Khronos Blender glTF 2.0 exporter", 
        "version" : "2.0"
    }, 
    "bufferViews" : [
        {
            "buffer" : 0, 
            "byteLength" : 1416, 
            "byteOffset" : 0, 
            "target" : 34963
        }, 
        {
            "buffer" : 0, 
            "byteLength" : 5040, 
            "byteOffset" : 1416, 
            "target" : 34962
        }, 
        {
            "buffer" : 0, 
            "byteLength" : 5040, 
            "byteOffset" : 6456, 
            "target" : 34962
        }
    ], 
    "buffers" : [
        {
            "byteLength" : 11496, 
            "uri" : "liquid.bin"
        }
    ], 
    "materials" : [
        {
            "alphaMode" : "BLEND", 
            "name" : "nacl.001", 
            "pbrMetallicRoughness" : {
                "baseColorFactor" : [
                    0.037468536928099816, 
                    0.0997338973159474, 
                    0.3900000444054612, 
                    0.4000000059604645
                ], 
                "metallicFactor" : 0.0
            }
        }
    ], 
    "meshes" : [
        {
            "name" : "Cube.002", 
            "primitives" : [
                {
                    "attributes" : {
                        "NORMAL" : 2, 
                        "POSITION" : 1
                    }, 
                    "indices" : 0, 
                    "material" : 0
                }
            ]
        }
    ], 
    "nodes" : [
        {
            "mesh" : 0, 
            "name" : "nacl.001", 
            "scale" : [
                0.5, 
                0.5537841320037842, 
                0.5
            ], 
            "translation" : [
                0.0, 
                0.38424015045166016, 
                -0.0
            ]
        }
    ], 
    "scene" : 0, 
    "scenes" : [
        {
            "name" : "Scene", 
            "nodes" : [
                0
            ]
        }
    ]
}
