{
    "accessors" : [
        {
            "bufferView" : 0, 
            "componentType" : 5121, 
            "count" : 339, 
            "max" : [
                90
            ], 
            "min" : [
                0
            ], 
            "type" : "SCALAR"
        }, 
        {
            "bufferView" : 1, 
            "componentType" : 5126, 
            "count" : 91, 
            "max" : [
                14.682446479797363, 
                2.306516170501709, 
                0.9989253878593445
            ], 
            "min" : [
                -0.9533914923667908, 
                -23.219640731811523, 
                -17.65435791015625
            ], 
            "type" : "VEC3"
        }, 
        {
            "bufferView" : 2, 
            "componentType" : 5126, 
            "count" : 91, 
            "max" : [
                0.9749314785003662, 
                1.0, 
                1.0
            ], 
            "min" : [
                -0.9804986715316772, 
                -0.9725028276443481, 
                -0.9677113890647888
            ], 
            "type" : "VEC3"
        }, 
        {
            "bufferView" : 3, 
            "componentType" : 5121, 
            "count" : 372, 
            "max" : [
                191
            ], 
            "min" : [
                0
            ], 
            "type" : "SCALAR"
        }, 
        {
            "bufferView" : 4, 
            "componentType" : 5126, 
            "count" : 192, 
            "max" : [
                0.5056667923927307, 
                1.382664680480957, 
                0.4527868330478668
            ], 
            "min" : [
                -0.5056666731834412, 
                -1.3826649188995361, 
                -0.45278605818748474
            ], 
            "type" : "VEC3"
        }, 
        {
            "bufferView" : 5, 
            "componentType" : 5126, 
            "count" : 192, 
            "max" : [
                0.948357343673706, 
                0.6314527988433838, 
                0.8573963046073914
            ], 
            "min" : [
                -0.9483572840690613, 
                -0.6314513683319092, 
                -0.8573964834213257
            ], 
            "type" : "VEC3"
        }, 
        {
            "bufferView" : 6, 
            "componentType" : 5123, 
            "count" : 42048, 
            "max" : [
                7289
            ], 
            "min" : [
                0
            ], 
            "type" : "SCALAR"
        }, 
        {
            "bufferView" : 7, 
            "componentType" : 5126, 
            "count" : 7290, 
            "max" : [
                2.70585036277771, 
                2.722444534301758, 
                1.1683480739593506
            ], 
            "min" : [
                -4.099362850189209, 
                -1.6985753774642944, 
                -1.7871419191360474
            ], 
            "type" : "VEC3"
        }, 
        {
            "bufferView" : 8, 
            "componentType" : 5126, 
            "count" : 7290, 
            "max" : [
                0.999237060546875, 
                0.9989318251609802, 
                0.999786376953125
            ], 
            "min" : [
                -0.999237060546875, 
                -0.9989318251609802, 
                -0.999786376953125
            ], 
            "type" : "VEC3"
        }, 
        {
            "bufferView" : 9, 
            "componentType" : 5123, 
            "count" : 8646, 
            "max" : [
                5462
            ], 
            "min" : [
                0
            ], 
            "type" : "SCALAR"
        }, 
        {
            "bufferView" : 10, 
            "componentType" : 5126, 
            "count" : 5463, 
            "max" : [
                3.5374350547790527, 
                3.3993797302246094, 
                2.530939817428589
            ], 
            "min" : [
                -4.007391929626465, 
                -2.9075469970703125, 
                -3.040053606033325
            ], 
            "type" : "VEC3"
        }, 
        {
            "bufferView" : 11, 
            "componentType" : 5126, 
            "count" : 5463, 
            "max" : [
                0.9997407793998718, 
                0.9779053330421448, 
                0.9998959898948669
            ], 
            "min" : [
                -0.9992903470993042, 
                -0.9748988747596741, 
                -0.9990701675415039
            ], 
            "type" : "VEC3"
        }, 
        {
            "bufferView" : 12, 
            "componentType" : 5121, 
            "count" : 366, 
            "max" : [
                219
            ], 
            "min" : [
                0
            ], 
            "type" : "SCALAR"
        }, 
        {
            "bufferView" : 13, 
            "componentType" : 5126, 
            "count" : 220, 
            "max" : [
                2.158764362335205, 
                2.6241719722747803, 
                2.302816390991211
            ], 
            "min" : [
                -2.42164945602417, 
                -3.544454336166382, 
                -1.9926209449768066
            ], 
            "type" : "VEC3"
        }, 
        {
            "bufferView" : 14, 
            "componentType" : 5126, 
            "count" : 220, 
            "max" : [
                0.864452064037323, 
                0.950779914855957, 
                0.8592491149902344
            ], 
            "min" : [
                -0.9369962811470032, 
                -0.979066789150238, 
                -0.858018159866333
            ], 
            "type" : "VEC3"
        }, 
        {
            "bufferView" : 15, 
            "componentType" : 5121, 
            "count" : 546, 
            "max" : [
                97
            ], 
            "min" : [
                0
            ], 
            "type" : "SCALAR"
        }, 
        {
            "bufferView" : 16, 
            "componentType" : 5126, 
            "count" : 98, 
            "max" : [
                0.6990990042686462, 
                2.0480074882507324, 
                0.7044324278831482
            ], 
            "min" : [
                -0.6940503716468811, 
                -1.8270632028579712, 
                -0.6340351700782776
            ], 
            "type" : "VEC3"
        }, 
        {
            "bufferView" : 17, 
            "componentType" : 5126, 
            "count" : 98, 
            "max" : [
                0.9863582253456116, 
                0.9671925902366638, 
                0.982207715511322
            ], 
            "min" : [
                -0.9868159890174866, 
                -0.965697169303894, 
                -0.982207715511322
            ], 
            "type" : "VEC3"
        }, 
        {
            "bufferView" : 18, 
            "componentType" : 5123, 
            "count" : 744, 
            "max" : [
                457
            ], 
            "min" : [
                0
            ], 
            "type" : "SCALAR"
        }, 
        {
            "bufferView" : 19, 
            "componentType" : 5126, 
            "count" : 458, 
            "max" : [
                2.211148977279663, 
                3.1129322052001953, 
                1.583353042602539
            ], 
            "min" : [
                -0.9459096789360046, 
                -3.2981910705566406, 
                -1.1378116607666016
            ], 
            "type" : "VEC3"
        }, 
        {
            "bufferView" : 20, 
            "componentType" : 5126, 
            "count" : 458, 
            "max" : [
                0.9749277830123901, 
                1.0, 
                1.0
            ], 
            "min" : [
                -0.9749277830123901, 
                -1.0, 
                -0.9009698629379272
            ], 
            "type" : "VEC3"
        }
    ], 
    "asset" : {
        "generator" : "Khronos Blender glTF 2.0 exporter", 
        "version" : "2.0"
    }, 
    "bufferViews" : [
        {
            "buffer" : 0, 
            "byteLength" : 339, 
            "byteOffset" : 0, 
            "target" : 34963
        }, 
        {
            "buffer" : 0, 
            "byteLength" : 1092, 
            "byteOffset" : 340, 
            "target" : 34962
        }, 
        {
            "buffer" : 0, 
            "byteLength" : 1092, 
            "byteOffset" : 1432, 
            "target" : 34962
        }, 
        {
            "buffer" : 0, 
            "byteLength" : 372, 
            "byteOffset" : 2524, 
            "target" : 34963
        }, 
        {
            "buffer" : 0, 
            "byteLength" : 2304, 
            "byteOffset" : 2896, 
            "target" : 34962
        }, 
        {
            "buffer" : 0, 
            "byteLength" : 2304, 
            "byteOffset" : 5200, 
            "target" : 34962
        }, 
        {
            "buffer" : 0, 
            "byteLength" : 84096, 
            "byteOffset" : 7504, 
            "target" : 34963
        }, 
        {
            "buffer" : 0, 
            "byteLength" : 87480, 
            "byteOffset" : 91600, 
            "target" : 34962
        }, 
        {
            "buffer" : 0, 
            "byteLength" : 87480, 
            "byteOffset" : 179080, 
            "target" : 34962
        }, 
        {
            "buffer" : 0, 
            "byteLength" : 17292, 
            "byteOffset" : 266560, 
            "target" : 34963
        }, 
        {
            "buffer" : 0, 
            "byteLength" : 65556, 
            "byteOffset" : 283852, 
            "target" : 34962
        }, 
        {
            "buffer" : 0, 
            "byteLength" : 65556, 
            "byteOffset" : 349408, 
            "target" : 34962
        }, 
        {
            "buffer" : 0, 
            "byteLength" : 366, 
            "byteOffset" : 414964, 
            "target" : 34963
        }, 
        {
            "buffer" : 0, 
            "byteLength" : 2640, 
            "byteOffset" : 415332, 
            "target" : 34962
        }, 
        {
            "buffer" : 0, 
            "byteLength" : 2640, 
            "byteOffset" : 417972, 
            "target" : 34962
        }, 
        {
            "buffer" : 0, 
            "byteLength" : 546, 
            "byteOffset" : 420612, 
            "target" : 34963
        }, 
        {
            "buffer" : 0, 
            "byteLength" : 1176, 
            "byteOffset" : 421160, 
            "target" : 34962
        }, 
        {
            "buffer" : 0, 
            "byteLength" : 1176, 
            "byteOffset" : 422336, 
            "target" : 34962
        }, 
        {
            "buffer" : 0, 
            "byteLength" : 1488, 
            "byteOffset" : 423512, 
            "target" : 34963
        }, 
        {
            "buffer" : 0, 
            "byteLength" : 5496, 
            "byteOffset" : 425000, 
            "target" : 34962
        }, 
        {
            "buffer" : 0, 
            "byteLength" : 5496, 
            "byteOffset" : 430496, 
            "target" : 34962
        }
    ], 
    "buffers" : [
        {
            "byteLength" : 435992, 
            "uri" : "5_Infusion_in_bottle.bin"
        }
    ], 
    "materials" : [
        {
            "name" : "Plastic.001", 
            "pbrMetallicRoughness" : {
                "baseColorFactor" : [
                    0.44000001609325423, 
                    0.44000001609325423, 
                    0.44000001609325423, 
                    1.0
                ], 
                "metallicFactor" : 0.0
            }
        }, 
        {
            "name" : "Plasticgreen", 
            "pbrMetallicRoughness" : {
                "baseColorFactor" : [
                    0.02787123476028408, 
                    0.12462112205128495, 
                    0.018088864927158887, 
                    1.0
                ], 
                "metallicFactor" : 0.0
            }
        }, 
        {
            "alphaMode" : "BLEND", 
            "name" : "Plastichard", 
            "pbrMetallicRoughness" : {
                "baseColorFactor" : [
                    0.536551721938725, 
                    0.536551721938725, 
                    0.536551721938725, 
                    0.32203391194343567
                ], 
                "metallicFactor" : 0.0
            }
        }, 
        {
            "name" : "Plasticyellow.001", 
            "pbrMetallicRoughness" : {
                "baseColorFactor" : [
                    0.17003040887436782, 
                    0.14183992351711083, 
                    0.009607830634290382, 
                    1.0
                ], 
                "metallicFactor" : 0.0
            }
        }
    ], 
    "meshes" : [
        {
            "name" : "Cylinder.000", 
            "primitives" : [
                {
                    "attributes" : {
                        "NORMAL" : 2, 
                        "POSITION" : 1
                    }, 
                    "indices" : 0, 
                    "material" : 1
                }
            ]
        }, 
        {
            "name" : "Cylinder.001", 
            "primitives" : [
                {
                    "attributes" : {
                        "NORMAL" : 5, 
                        "POSITION" : 4
                    }, 
                    "indices" : 3, 
                    "material" : 0
                }
            ]
        }, 
        {
            "name" : "Mesh.001", 
            "primitives" : [
                {
                    "attributes" : {
                        "NORMAL" : 8, 
                        "POSITION" : 7
                    }, 
                    "indices" : 6, 
                    "material" : 2
                }
            ]
        }, 
        {
            "name" : "Cylinder.006", 
            "primitives" : [
                {
                    "attributes" : {
                        "NORMAL" : 11, 
                        "POSITION" : 10
                    }, 
                    "indices" : 9, 
                    "material" : 2
                }
            ]
        }, 
        {
            "name" : "Cylinder.003", 
            "primitives" : [
                {
                    "attributes" : {
                        "NORMAL" : 14, 
                        "POSITION" : 13
                    }, 
                    "indices" : 12, 
                    "material" : 3
                }
            ]
        }, 
        {
            "name" : "Cylinder.002", 
            "primitives" : [
                {
                    "attributes" : {
                        "NORMAL" : 17, 
                        "POSITION" : 16
                    }, 
                    "indices" : 15, 
                    "material" : 2
                }
            ]
        }, 
        {
            "name" : "Cylinder.011", 
            "primitives" : [
                {
                    "attributes" : {
                        "NORMAL" : 20, 
                        "POSITION" : 19
                    }, 
                    "indices" : 18, 
                    "material" : 1
                }
            ]
        }
    ], 
    "nodes" : [
        {
            "mesh" : 2, 
            "name" : "BezierCurve.001", 
            "rotation" : [
                0.4122661054134369, 
                -0.08650538325309753, 
                0.03935902193188667, 
                0.9060928821563721
            ], 
            "translation" : [
                0.042523425072431564, 
                1.1978217363357544, 
                -0.0795857161283493
            ]
        }, 
        {
            "mesh" : 5, 
            "name" : "DeckeGreen", 
            "rotation" : [
                0.21069855988025665, 
                0.3409436345100403, 
                -0.03163720667362213, 
                0.9156214594841003
            ], 
            "scale" : [
                0.13169129192829132, 
                0.04818301647901535, 
                0.13169127702713013
            ], 
            "translation" : [
                2.5885133743286133, 
                0.16413290798664093, 
                -0.9060280323028564
            ]
        }, 
        {
            "mesh" : 0, 
            "name" : "DeckerGreen0", 
            "rotation" : [
                -0.6724959015846252, 
                -0.41314274072647095, 
                0.533990204334259, 
                0.3031778633594513
            ], 
            "scale" : [
                0.13169124722480774, 
                0.04818301647901535, 
                0.13169130682945251
            ], 
            "translation" : [
                2.5161538124084473, 
                0.17802466452121735, 
                -0.9728677272796631
            ]
        }, 
        {
            "mesh" : 4, 
            "name" : "Einstellung", 
            "rotation" : [
                -0.08349677920341492, 
                0.3497333824634552, 
                0.8081087470054626, 
                0.4665566086769104
            ], 
            "scale" : [
                0.18264515697956085, 
                0.06682594865560532, 
                0.18264515697956085
            ], 
            "translation" : [
                -2.782851457595825, 
                1.928985595703125, 
                -0.20245085656642914
            ]
        }, 
        {
            "mesh" : 3, 
            "name" : "ObernTeil", 
            "rotation" : [
                -0.05123792588710785, 
                0.4533400237560272, 
                -0.6967100501060486, 
                0.5535816550254822
            ], 
            "scale" : [
                0.18264515697956085, 
                0.06682594865560532, 
                0.18264515697956085
            ], 
            "translation" : [
                -4.10465669631958, 
                3.1132524013519287, 
                0.059344332665205
            ]
        }, 
        {
            "mesh" : 1, 
            "name" : "Rad", 
            "rotation" : [
                -0.08298192918300629, 
                0.3417093753814697, 
                0.8078567385673523, 
                0.4729864001274109
            ], 
            "scale" : [
                0.18264515697956085, 
                0.06682594865560532, 
                0.18264515697956085
            ], 
            "translation" : [
                -2.6230831146240234, 
                1.7119489908218384, 
                -0.21136917173862457
            ]
        }, 
        {
            "mesh" : 6, 
            "name" : "RingGreen0", 
            "rotation" : [
                -0.05123792588710785, 
                0.4533400237560272, 
                -0.6967100501060486, 
                0.5535816550254822
            ], 
            "scale" : [
                0.18264515697956085, 
                0.06682594865560532, 
                0.18264515697956085
            ], 
            "translation" : [
                -4.084476947784424, 
                3.3496322631835938, 
                0.05542049929499626
            ]
        }
    ], 
    "scene" : 0, 
    "scenes" : [
        {
            "name" : "Scene", 
            "nodes" : [
                0, 
                4, 
                3, 
                5, 
                1, 
                2, 
                6
            ]
        }
    ]
}
