{
    "accessors" : [
        {
            "bufferView" : 0, 
            "componentType" : 5121, 
            "count" : 354, 
            "max" : [
                239
            ], 
            "min" : [
                0
            ], 
            "type" : "SCALAR"
        }, 
        {
            "bufferView" : 1, 
            "componentType" : 5126, 
            "count" : 240, 
            "max" : [
                -0.07070033252239227, 
                2.203355073928833, 
                3.297942876815796
            ], 
            "min" : [
                -0.27386534214019775, 
                1.8623348474502563, 
                2.956922769546509
            ], 
            "type" : "VEC3"
        }, 
        {
            "bufferView" : 2, 
            "componentType" : 5126, 
            "count" : 240, 
            "max" : [
                0.5522096157073975, 
                0.9800477623939514, 
                0.9626369476318359
            ], 
            "min" : [
                -1.0, 
                -0.9800474047660828, 
                -0.9626369476318359
            ], 
            "type" : "VEC3"
        }, 
        {
            "bufferView" : 3, 
            "componentType" : 5126, 
            "count" : 240, 
            "max" : [
                0.9993947148323059, 
                0.9993947563343681
            ], 
            "min" : [
                0.0006052436656318605, 
                0.012139558792114258
            ], 
            "type" : "VEC2"
        }
    ], 
    "asset" : {
        "generator" : "Khronos Blender glTF 2.0 exporter", 
        "version" : "2.0"
    }, 
    "bufferViews" : [
        {
            "buffer" : 0, 
            "byteLength" : 354, 
            "byteOffset" : 0, 
            "target" : 34963
        }, 
        {
            "buffer" : 0, 
            "byteLength" : 2880, 
            "byteOffset" : 356, 
            "target" : 34962
        }, 
        {
            "buffer" : 0, 
            "byteLength" : 2880, 
            "byteOffset" : 3236, 
            "target" : 34962
        }, 
        {
            "buffer" : 0, 
            "byteLength" : 1920, 
            "byteOffset" : 6116, 
            "target" : 34962
        }
    ], 
    "buffers" : [
        {
            "byteLength" : 8036, 
            "uri" : "cupboardDoorLeftHandle.bin"
        }
    ], 
    "images" : [
        {
            "uri" : "../../../texture/silverMetalTexture512.png"
        }
    ], 
    "materials" : [
        {
            "name" : "Material", 
            "pbrMetallicRoughness" : {
                "baseColorFactor" : [
                    0.6400000190734865, 
                    0.6400000190734865, 
                    0.6400000190734865, 
                    1.0
                ], 
                "baseColorTexture" : {
                    "index" : 0
                }, 
                "metallicFactor" : 0.0
            }
        }, 
        {
            "name" : "Wood", 
            "pbrMetallicRoughness" : {
                "baseColorFactor" : [
                    0.799102783203125, 
                    0.24620139598846436, 
                    0.04970657452940941, 
                    1.0
                ], 
                "metallicFactor" : 0.0
            }
        }
    ], 
    "meshes" : [
        {
            "name" : "Cube.002", 
            "primitives" : [
                {
                    "attributes" : {
                        "NORMAL" : 2, 
                        "POSITION" : 1, 
                        "TEXCOORD_0" : 3
                    }, 
                    "indices" : 0, 
                    "material" : 0
                }
            ]
        }
    ], 
    "nodes" : [
        {
            "mesh" : 0, 
            "name" : "handle", 
            "rotation" : [
                0.0, 
                1.0, 
                -0.0, 
                -4.371138828673793e-08
            ]
        }
    ], 
    "samplers" : [
        {}
    ], 
    "scene" : 0, 
    "scenes" : [
        {
            "name" : "Scene", 
            "nodes" : [
                0
            ]
        }
    ], 
    "textures" : [
        {
            "sampler" : 0, 
            "source" : 0
        }
    ]
}
