{
    "accessors" : [
        {
            "bufferView" : 0, 
            "componentType" : 5123, 
            "count" : 8646, 
            "max" : [
                5462
            ], 
            "min" : [
                0
            ], 
            "type" : "SCALAR"
        }, 
        {
            "bufferView" : 1, 
            "componentType" : 5126, 
            "count" : 5463, 
            "max" : [
                3.5374350547790527, 
                3.3993797302246094, 
                2.530939817428589
            ], 
            "min" : [
                -4.007391929626465, 
                -2.9075469970703125, 
                -3.040053606033325
            ], 
            "type" : "VEC3"
        }, 
        {
            "bufferView" : 2, 
            "componentType" : 5126, 
            "count" : 5463, 
            "max" : [
                0.9997407793998718, 
                0.9779053330421448, 
                0.9998959898948669
            ], 
            "min" : [
                -0.9992903470993042, 
                -0.9748988747596741, 
                -0.9990701675415039
            ], 
            "type" : "VEC3"
        }, 
        {
            "bufferView" : 3, 
            "componentType" : 5121, 
            "count" : 366, 
            "max" : [
                221
            ], 
            "min" : [
                0
            ], 
            "type" : "SCALAR"
        }, 
        {
            "bufferView" : 4, 
            "componentType" : 5126, 
            "count" : 222, 
            "max" : [
                2.158764362335205, 
                2.6241719722747803, 
                2.357069253921509
            ], 
            "min" : [
                -2.42164945602417, 
                -3.544454336166382, 
                -1.9926209449768066
            ], 
            "type" : "VEC3"
        }, 
        {
            "bufferView" : 5, 
            "componentType" : 5126, 
            "count" : 222, 
            "max" : [
                0.864452064037323, 
                0.9997010827064514, 
                0.8580186367034912
            ], 
            "min" : [
                -0.9392351508140564, 
                -0.9798814654350281, 
                -0.858018159866333
            ], 
            "type" : "VEC3"
        }, 
        {
            "bufferView" : 6, 
            "componentType" : 5123, 
            "count" : 744, 
            "max" : [
                457
            ], 
            "min" : [
                0
            ], 
            "type" : "SCALAR"
        }, 
        {
            "bufferView" : 7, 
            "componentType" : 5126, 
            "count" : 458, 
            "max" : [
                2.211148977279663, 
                3.1129322052001953, 
                1.583353042602539
            ], 
            "min" : [
                -0.9459096789360046, 
                -3.2981910705566406, 
                -1.1378116607666016
            ], 
            "type" : "VEC3"
        }, 
        {
            "bufferView" : 8, 
            "componentType" : 5126, 
            "count" : 458, 
            "max" : [
                0.9749277830123901, 
                1.0, 
                1.0
            ], 
            "min" : [
                -0.9749277830123901, 
                -1.0, 
                -0.9009698629379272
            ], 
            "type" : "VEC3"
        }, 
        {
            "bufferView" : 9, 
            "componentType" : 5121, 
            "count" : 546, 
            "max" : [
                97
            ], 
            "min" : [
                0
            ], 
            "type" : "SCALAR"
        }, 
        {
            "bufferView" : 10, 
            "componentType" : 5126, 
            "count" : 98, 
            "max" : [
                0.6990990042686462, 
                2.0480074882507324, 
                0.7044324278831482
            ], 
            "min" : [
                -0.6940503716468811, 
                -1.8270632028579712, 
                -0.6340351700782776
            ], 
            "type" : "VEC3"
        }, 
        {
            "bufferView" : 11, 
            "componentType" : 5126, 
            "count" : 98, 
            "max" : [
                0.9863582253456116, 
                0.9671925902366638, 
                0.982207715511322
            ], 
            "min" : [
                -0.9868159890174866, 
                -0.965697169303894, 
                -0.982207715511322
            ], 
            "type" : "VEC3"
        }, 
        {
            "bufferView" : 12, 
            "componentType" : 5123, 
            "count" : 48960, 
            "max" : [
                8403
            ], 
            "min" : [
                0
            ], 
            "type" : "SCALAR"
        }, 
        {
            "bufferView" : 13, 
            "componentType" : 5126, 
            "count" : 8404, 
            "max" : [
                9.631159782409668, 
                0.6876996159553528, 
                0.8062105178833008
            ], 
            "min" : [
                -1.0022212266921997, 
                -0.0855657309293747, 
                -0.045262232422828674
            ], 
            "type" : "VEC3"
        }, 
        {
            "bufferView" : 14, 
            "componentType" : 5126, 
            "count" : 8404, 
            "max" : [
                0.9998779296875, 
                0.999969482421875, 
                0.999969482421875
            ], 
            "min" : [
                -0.99945068359375, 
                -0.999969482421875, 
                -0.999969482421875
            ], 
            "type" : "VEC3"
        }, 
        {
            "bufferView" : 15, 
            "componentType" : 5121, 
            "count" : 339, 
            "max" : [
                90
            ], 
            "min" : [
                0
            ], 
            "type" : "SCALAR"
        }, 
        {
            "bufferView" : 16, 
            "componentType" : 5126, 
            "count" : 91, 
            "max" : [
                14.682446479797363, 
                2.306516170501709, 
                0.9989253878593445
            ], 
            "min" : [
                -0.9533914923667908, 
                -23.219640731811523, 
                -17.65435791015625
            ], 
            "type" : "VEC3"
        }, 
        {
            "bufferView" : 17, 
            "componentType" : 5126, 
            "count" : 91, 
            "max" : [
                0.9749314785003662, 
                1.0, 
                1.0
            ], 
            "min" : [
                -0.9804986715316772, 
                -0.9725028276443481, 
                -0.9677113890647888
            ], 
            "type" : "VEC3"
        }
    ], 
    "asset" : {
        "generator" : "Khronos Blender glTF 2.0 exporter", 
        "version" : "2.0"
    }, 
    "bufferViews" : [
        {
            "buffer" : 0, 
            "byteLength" : 17292, 
            "byteOffset" : 0, 
            "target" : 34963
        }, 
        {
            "buffer" : 0, 
            "byteLength" : 65556, 
            "byteOffset" : 17292, 
            "target" : 34962
        }, 
        {
            "buffer" : 0, 
            "byteLength" : 65556, 
            "byteOffset" : 82848, 
            "target" : 34962
        }, 
        {
            "buffer" : 0, 
            "byteLength" : 366, 
            "byteOffset" : 148404, 
            "target" : 34963
        }, 
        {
            "buffer" : 0, 
            "byteLength" : 2664, 
            "byteOffset" : 148772, 
            "target" : 34962
        }, 
        {
            "buffer" : 0, 
            "byteLength" : 2664, 
            "byteOffset" : 151436, 
            "target" : 34962
        }, 
        {
            "buffer" : 0, 
            "byteLength" : 1488, 
            "byteOffset" : 154100, 
            "target" : 34963
        }, 
        {
            "buffer" : 0, 
            "byteLength" : 5496, 
            "byteOffset" : 155588, 
            "target" : 34962
        }, 
        {
            "buffer" : 0, 
            "byteLength" : 5496, 
            "byteOffset" : 161084, 
            "target" : 34962
        }, 
        {
            "buffer" : 0, 
            "byteLength" : 546, 
            "byteOffset" : 166580, 
            "target" : 34963
        }, 
        {
            "buffer" : 0, 
            "byteLength" : 1176, 
            "byteOffset" : 167128, 
            "target" : 34962
        }, 
        {
            "buffer" : 0, 
            "byteLength" : 1176, 
            "byteOffset" : 168304, 
            "target" : 34962
        }, 
        {
            "buffer" : 0, 
            "byteLength" : 97920, 
            "byteOffset" : 169480, 
            "target" : 34963
        }, 
        {
            "buffer" : 0, 
            "byteLength" : 100848, 
            "byteOffset" : 267400, 
            "target" : 34962
        }, 
        {
            "buffer" : 0, 
            "byteLength" : 100848, 
            "byteOffset" : 368248, 
            "target" : 34962
        }, 
        {
            "buffer" : 0, 
            "byteLength" : 339, 
            "byteOffset" : 469096, 
            "target" : 34963
        }, 
        {
            "buffer" : 0, 
            "byteLength" : 1092, 
            "byteOffset" : 469436, 
            "target" : 34962
        }, 
        {
            "buffer" : 0, 
            "byteLength" : 1092, 
            "byteOffset" : 470528, 
            "target" : 34962
        }
    ], 
    "buffers" : [
        {
            "byteLength" : 471620, 
            "uri" : "9_Infusion_fixed.bin"
        }
    ], 
    "materials" : [
        {
            "name" : "Plasticgreen.001", 
            "pbrMetallicRoughness" : {
                "baseColorFactor" : [
                    0.02787123476028408, 
                    0.12462112205128495, 
                    0.018088864927158887, 
                    1.0
                ], 
                "metallicFactor" : 0.0
            }
        }, 
        {
            "alphaMode" : "BLEND", 
            "name" : "Plastichard.001", 
            "pbrMetallicRoughness" : {
                "baseColorFactor" : [
                    0.536551721938725, 
                    0.536551721938725, 
                    0.536551721938725, 
                    0.32203391194343567
                ], 
                "metallicFactor" : 0.0
            }
        }, 
        {
            "name" : "Plasticyellow", 
            "pbrMetallicRoughness" : {
                "baseColorFactor" : [
                    0.17003040887436782, 
                    0.14183992351711083, 
                    0.009607830634290382, 
                    1.0
                ], 
                "metallicFactor" : 0.0
            }
        }, 
        {
            "alphaMode" : "BLEND", 
            "name" : "wasser.001", 
            "pbrMetallicRoughness" : {
                "baseColorFactor" : [
                    0.0, 
                    0.0006329969026445427, 
                    0.4721655456880036, 
                    0.5
                ], 
                "metallicFactor" : 0.0
            }
        }
    ], 
    "meshes" : [
        {
            "name" : "Cylinder.006", 
            "primitives" : [
                {
                    "attributes" : {
                        "NORMAL" : 2, 
                        "POSITION" : 1
                    }, 
                    "indices" : 0, 
                    "material" : 1
                }
            ]
        }, 
        {
            "name" : "Cylinder.003", 
            "primitives" : [
                {
                    "attributes" : {
                        "NORMAL" : 5, 
                        "POSITION" : 4
                    }, 
                    "indices" : 3, 
                    "material" : 2
                }
            ]
        }, 
        {
            "name" : "Cylinder.011", 
            "primitives" : [
                {
                    "attributes" : {
                        "NORMAL" : 8, 
                        "POSITION" : 7
                    }, 
                    "indices" : 6, 
                    "material" : 0
                }
            ]
        }, 
        {
            "name" : "Cylinder.002", 
            "primitives" : [
                {
                    "attributes" : {
                        "NORMAL" : 11, 
                        "POSITION" : 10
                    }, 
                    "indices" : 9, 
                    "material" : 1
                }
            ]
        }, 
        {
            "name" : "Mesh.001", 
            "primitives" : [
                {
                    "attributes" : {
                        "NORMAL" : 14, 
                        "POSITION" : 13
                    }, 
                    "indices" : 12, 
                    "material" : 3
                }
            ]
        }, 
        {
            "name" : "Cylinder.000", 
            "primitives" : [
                {
                    "attributes" : {
                        "NORMAL" : 17, 
                        "POSITION" : 16
                    }, 
                    "indices" : 15, 
                    "material" : 0
                }
            ]
        }
    ], 
    "nodes" : [
        {
            "mesh" : 3, 
            "name" : "DeckeGreen", 
            "rotation" : [
                -0.3732728660106659, 
                0.40009671449661255, 
                -0.45200151205062866, 
                0.7044747471809387
            ], 
            "scale" : [
                0.13169129192829132, 
                0.04818302020430565, 
                0.13169127702713013
            ], 
            "translation" : [
                -5.534073352813721, 
                0.013069422915577888, 
                0.45464321970939636
            ]
        }, 
        {
            "mesh" : 5, 
            "name" : "DeckerGreen0", 
            "rotation" : [
                0.6235931515693665, 
                -0.23279275000095367, 
                -0.7461346983909607, 
                0.014911262318491936
            ], 
            "scale" : [
                0.13169124722480774, 
                0.04818301647901535, 
                0.13169130682945251
            ], 
            "translation" : [
                -5.631934642791748, 
                3.4051015973091125e-05, 
                0.442404180765152
            ]
        }, 
        {
            "mesh" : 1, 
            "name" : "Einstellung", 
            "rotation" : [
                0.27725791931152344, 
                -0.2630883455276489, 
                -0.921984076499939, 
                0.062112148851156235
            ], 
            "scale" : [
                0.18264515697956085, 
                0.06682594865560532, 
                0.18264515697956085
            ], 
            "translation" : [
                -4.323025226593018, 
                -0.051743440330028534, 
                0.2763564884662628
            ]
        }, 
        {
            "mesh" : 0, 
            "name" : "ObernTeil", 
            "rotation" : [
                -0.28071215748786926, 
                -0.3596431314945221, 
                0.8850666284561157, 
                0.0922752320766449
            ], 
            "scale" : [
                0.18264515697956085, 
                0.06682594865560532, 
                0.18264515697956085
            ], 
            "translation" : [
                -7.434080600738525, 
                -0.0313878208398819, 
                0.21538767218589783
            ]
        }, 
        {
            "mesh" : 2, 
            "name" : "RingGreen0", 
            "rotation" : [
                -0.28071215748786926, 
                -0.3596431314945221, 
                0.8850666284561157, 
                0.0922752320766449
            ], 
            "scale" : [
                0.18264515697956085, 
                0.06682594865560532, 
                0.18264515697956085
            ], 
            "translation" : [
                -7.197341442108154, 
                -0.046790361404418945, 
                0.2114638090133667
            ]
        }, 
        {
            "mesh" : 4, 
            "name" : "Schlauch", 
            "rotation" : [
                0.33298414945602417, 
                0.012209535576403141, 
                -0.00431231502443552, 
                0.9428436160087585
            ], 
            "scale" : [
                1.0, 
                1.0, 
                0.9999999403953552
            ], 
            "translation" : [
                -5.590838432312012, 
                0.0, 
                0.17045241594314575
            ]
        }
    ], 
    "scene" : 0, 
    "scenes" : [
        {
            "name" : "Scene", 
            "nodes" : [
                5, 
                3, 
                2, 
                0, 
                1, 
                4
            ]
        }
    ]
}
