{
    "accessors" : [
        {
            "bufferView" : 0, 
            "componentType" : 5123, 
            "count" : 5856, 
            "max" : [
                3903
            ], 
            "min" : [
                0
            ], 
            "type" : "SCALAR"
        }, 
        {
            "bufferView" : 1, 
            "componentType" : 5126, 
            "count" : 3904, 
            "max" : [
                0.6788060665130615, 
                0.07874844968318939, 
                1.0489964485168457
            ], 
            "min" : [
                -0.7403596639633179, 
                -1.073466420173645, 
                -0.8393558263778687
            ], 
            "type" : "VEC3"
        }, 
        {
            "bufferView" : 2, 
            "componentType" : 5126, 
            "count" : 3904, 
            "max" : [
                0.9226557016372681, 
                0.9998304843902588, 
                0.9560660719871521
            ], 
            "min" : [
                -0.9473115801811218, 
                -0.9994018077850342, 
                -0.9922124743461609
            ], 
            "type" : "VEC3"
        }, 
        {
            "bufferView" : 3, 
            "componentType" : 5126, 
            "count" : 3904, 
            "max" : [
                0.9973183870315552, 
                0.9769928455352783, 
                0.9739768505096436, 
                1.0
            ], 
            "min" : [
                -0.9994776844978333, 
                -0.9780385494232178, 
                -0.9999802112579346, 
                1.0
            ], 
            "type" : "VEC4"
        }, 
        {
            "bufferView" : 4, 
            "componentType" : 5126, 
            "count" : 3904, 
            "max" : [
                0.9803430438041687, 
                0.9993740657810122
            ], 
            "min" : [
                0.0006259342189878225, 
                0.0006259679794311523
            ], 
            "type" : "VEC2"
        }
    ], 
    "asset" : {
        "generator" : "Khronos Blender glTF 2.0 exporter", 
        "version" : "2.0"
    }, 
    "bufferViews" : [
        {
            "buffer" : 0, 
            "byteLength" : 11712, 
            "byteOffset" : 0, 
            "target" : 34963
        }, 
        {
            "buffer" : 0, 
            "byteLength" : 46848, 
            "byteOffset" : 11712, 
            "target" : 34962
        }, 
        {
            "buffer" : 0, 
            "byteLength" : 46848, 
            "byteOffset" : 58560, 
            "target" : 34962
        }, 
        {
            "buffer" : 0, 
            "byteLength" : 62464, 
            "byteOffset" : 105408, 
            "target" : 34962
        }, 
        {
            "buffer" : 0, 
            "byteLength" : 31232, 
            "byteOffset" : 167872, 
            "target" : 34962
        }
    ], 
    "buffers" : [
        {
            "byteLength" : 199104, 
            "uri" : "clothBottleCloth.bin"
        }
    ], 
    "images" : [
        {
            "uri" : "../../texture/tuchtexture512.png"
        }
    ], 
    "materials" : [
        {
            "name" : "cloth", 
            "pbrMetallicRoughness" : {
                "baseColorFactor" : [
                    0.6400000190734865, 
                    0.6400000190734865, 
                    0.6400000190734865, 
                    1.0
                ], 
                "baseColorTexture" : {
                    "index" : 0
                }, 
                "metallicFactor" : 0.0
            }
        }
    ], 
    "meshes" : [
        {
            "name" : "Plane.002", 
            "primitives" : [
                {
                    "attributes" : {
                        "NORMAL" : 2, 
                        "POSITION" : 1, 
                        "TANGENT" : 3, 
                        "TEXCOORD_0" : 4
                    }, 
                    "indices" : 0, 
                    "material" : 0
                }
            ]
        }
    ], 
    "nodes" : [
        {
            "mesh" : 0, 
            "name" : "Tuch", 
            "rotation" : [
                0.7046931982040405, 
                -0.11318084597587585, 
                0.11544930189847946, 
                0.6908466219902039
            ], 
            "scale" : [
                0.28686583042144775, 
                0.28686586022377014, 
                0.4366430938243866
            ], 
            "translation" : [
                0.002895452082157135, 
                0.002834813669323921, 
                -0.0008258521556854248
            ]
        }
    ], 
    "samplers" : [
        {}
    ], 
    "scene" : 0, 
    "scenes" : [
        {
            "name" : "Scene", 
            "nodes" : [
                0
            ]
        }
    ], 
    "textures" : [
        {
            "sampler" : 0, 
            "source" : 0
        }
    ]
}
