{
    "accessors" : [
        {
            "bufferView" : 0, 
            "componentType" : 5123, 
            "count" : 1338, 
            "max" : [
                895
            ], 
            "min" : [
                0
            ], 
            "type" : "SCALAR"
        }, 
        {
            "bufferView" : 1, 
            "componentType" : 5126, 
            "count" : 896, 
            "max" : [
                0.27128249406814575, 
                0.5598166584968567, 
                0.10890364646911621
            ], 
            "min" : [
                -1.386682391166687, 
                0.05063444375991821, 
                -1.9064536094665527
            ], 
            "type" : "VEC3"
        }, 
        {
            "bufferView" : 2, 
            "componentType" : 5126, 
            "count" : 896, 
            "max" : [
                0.9133274555206299, 
                1.0, 
                0.9781182408332825
            ], 
            "min" : [
                -0.9133274555206299, 
                -0.9469283223152161, 
                -0.9133274555206299
            ], 
            "type" : "VEC3"
        }, 
        {
            "bufferView" : 3, 
            "componentType" : 5126, 
            "count" : 896, 
            "max" : [
                0.9954617023468018, 
                0.9987805959535763
            ], 
            "min" : [
                0.0012194040464237332, 
                0.0012193918228149414
            ], 
            "type" : "VEC2"
        }
    ], 
    "asset" : {
        "generator" : "Khronos Blender glTF 2.0 exporter", 
        "version" : "2.0"
    }, 
    "bufferViews" : [
        {
            "buffer" : 0, 
            "byteLength" : 2676, 
            "byteOffset" : 0, 
            "target" : 34963
        }, 
        {
            "buffer" : 0, 
            "byteLength" : 10752, 
            "byteOffset" : 2676, 
            "target" : 34962
        }, 
        {
            "buffer" : 0, 
            "byteLength" : 10752, 
            "byteOffset" : 13428, 
            "target" : 34962
        }, 
        {
            "buffer" : 0, 
            "byteLength" : 7168, 
            "byteOffset" : 24180, 
            "target" : 34962
        }
    ], 
    "buffers" : [
        {
            "byteLength" : 31348, 
            "uri" : "clothBottleCap.bin"
        }
    ], 
    "images" : [
        {
            "uri" : "../../texture/whiteplastictexture256.png"
        }
    ], 
    "materials" : [
        {
            "name" : "plastic", 
            "pbrMetallicRoughness" : {
                "baseColorFactor" : [
                    0.6400000190734865, 
                    0.6400000190734865, 
                    0.6400000190734865, 
                    1.0
                ], 
                "baseColorTexture" : {
                    "index" : 0
                }, 
                "metallicFactor" : 0.0
            }
        }
    ], 
    "meshes" : [
        {
            "name" : "Sphere", 
            "primitives" : [
                {
                    "attributes" : {
                        "NORMAL" : 2, 
                        "POSITION" : 1, 
                        "TEXCOORD_0" : 3
                    }, 
                    "indices" : 0, 
                    "material" : 0
                }
            ]
        }
    ], 
    "nodes" : [
        {
            "mesh" : 0, 
            "name" : "decker", 
            "rotation" : [
                -0.0030757158529013395, 
                -0.2287703901529312, 
                0.012991819530725479, 
                0.9733888506889343
            ], 
            "scale" : [
                0.2770565152168274, 
                0.2770565152168274, 
                0.277056485414505
            ], 
            "translation" : [
                2.2817403078079224e-08, 
                0.0, 
                -0.0
            ]
        }
    ], 
    "samplers" : [
        {}
    ], 
    "scene" : 0, 
    "scenes" : [
        {
            "name" : "Scene", 
            "nodes" : [
                0
            ]
        }
    ], 
    "textures" : [
        {
            "sampler" : 0, 
            "source" : 0
        }
    ]
}
