{
    "accessors" : [
        {
            "bufferView" : 0, 
            "componentType" : 5121, 
            "count" : 126, 
            "max" : [
                83
            ], 
            "min" : [
                0
            ], 
            "type" : "SCALAR"
        }, 
        {
            "bufferView" : 1, 
            "componentType" : 5126, 
            "count" : 84, 
            "max" : [
                2.0, 
                0.9599999785423279, 
                4.929999828338623
            ], 
            "min" : [
                0.0, 
                -0.030000029131770134, 
                -0.029999999329447746
            ], 
            "type" : "VEC3"
        }, 
        {
            "bufferView" : 2, 
            "componentType" : 5126, 
            "count" : 84, 
            "max" : [
                1.0, 
                1.0, 
                1.0
            ], 
            "min" : [
                -1.0, 
                -1.0, 
                -1.0
            ], 
            "type" : "VEC3"
        }, 
        {
            "bufferView" : 3, 
            "componentType" : 5126, 
            "count" : 84, 
            "max" : [
                1.0, 
                2.628808215376921e-05, 
                1.0, 
                1.0
            ], 
            "min" : [
                -1.0, 
                -1.0, 
                -1.0, 
                1.0
            ], 
            "type" : "VEC4"
        }, 
        {
            "bufferView" : 4, 
            "componentType" : 5126, 
            "count" : 84, 
            "max" : [
                0.9997003078460693, 
                0.9997002790332772
            ], 
            "min" : [
                0.00029972096672281623, 
                0.08876007795333862
            ], 
            "type" : "VEC2"
        }
    ], 
    "asset" : {
        "generator" : "Khronos Blender glTF 2.0 exporter", 
        "version" : "2.0"
    }, 
    "bufferViews" : [
        {
            "buffer" : 0, 
            "byteLength" : 126, 
            "byteOffset" : 0, 
            "target" : 34963
        }, 
        {
            "buffer" : 0, 
            "byteLength" : 1008, 
            "byteOffset" : 128, 
            "target" : 34962
        }, 
        {
            "buffer" : 0, 
            "byteLength" : 1008, 
            "byteOffset" : 1136, 
            "target" : 34962
        }, 
        {
            "buffer" : 0, 
            "byteLength" : 1344, 
            "byteOffset" : 2144, 
            "target" : 34962
        }, 
        {
            "buffer" : 0, 
            "byteLength" : 672, 
            "byteOffset" : 3488, 
            "target" : 34962
        }
    ], 
    "buffers" : [
        {
            "byteLength" : 4160, 
            "uri" : "drawer.bin"
        }
    ], 
    "images" : [
        {
            "uri" : "../../../texture/woodtexture.png"
        }
    ], 
    "materials" : [
        {
            "name" : "Wood", 
            "pbrMetallicRoughness" : {
                "baseColorFactor" : [
                    0.799102783203125, 
                    0.24620139598846436, 
                    0.04970657452940941, 
                    1.0
                ], 
                "baseColorTexture" : {
                    "index" : 0
                }, 
                "metallicFactor" : 0.0
            }
        }
    ], 
    "meshes" : [
        {
            "name" : "Plane", 
            "primitives" : [
                {
                    "attributes" : {
                        "NORMAL" : 2, 
                        "POSITION" : 1, 
                        "TANGENT" : 3, 
                        "TEXCOORD_0" : 4
                    }, 
                    "indices" : 0, 
                    "material" : 0
                }
            ]
        }
    ], 
    "nodes" : [
        {
            "mesh" : 0, 
            "name" : "Plane", 
            "scale" : [
                1.3586276769638062, 
                1.3586276769638062, 
                1.3586276769638062
            ]
        }
    ], 
    "samplers" : [
        {}
    ], 
    "scene" : 0, 
    "scenes" : [
        {
            "name" : "Scene", 
            "nodes" : [
                0
            ]
        }
    ], 
    "textures" : [
        {
            "sampler" : 0, 
            "source" : 0
        }
    ]
}
